<svg xmlns="http://www.w3.org/2000/svg" width="248" height="202" fill="none" viewBox="0 0 248 202"><path fill="#fff" d="M14 27.785h219v147H14z"/><path stroke="#fff" stroke-linecap="round" stroke-width="6" d="M8.883 42.67c0-3.78 0-6.587-.305-6.724-.714-.321-.914 3.048-1.245 4.041-.33.993-.365.584-.424.122-.246-1.939-.52-4.165-.553-13.666-.006-1.888.48-2.065 2.23-2.16 4.897-.265 8.642-.23 10.84-.434 4.605-.43 8.061-.005 10.152.093 4.52.213 7.861-.029 9.503-.124 6.728-.389 11.982.695 16.54 1.123 9.39.881 11.055-.163 13.215-.393.816-.087 1.98-.098 6.807-.135a2311 2311 0 0 1 17.96-.058c5.323.012 6.589-.002 7.75-.222 1.055-.2 5.493-.295 11.788-.316 4.915-.017 9.879.246 17.589.155 5.789-.068 10.034.005 12.372.23 5.616.537 8.019-.026 12.426-.35 2.598-.192 7.43-.577 11.973-.028 1.409.17 2.408.627 4.175.782 3.418.301 7.841.188 15.041.26 4.98.051 12.652-.03 17.068-.07 5.345-.048 10.035-.157 15.893-.187 2.52-.013 3.934.143 6.673.338 8.794.627 13.81.956 15.062 1.09 2.914.308.758 8.112 1.134 11.478.495 4.441.433 6.516.569 9.993.168 4.26.413 5.892.635 8.406.531 6.005-.346 7.798-.706 10.64-.904 7.133-.313 12.78-.45 16.486-.018.488-.07 1.033-.105 4.886a2288 2288 0 0 0-.072 15.131c-.003 5.05-.066 8.831-.277 13.315-.077 1.644-.122 2.005-.142 6.917s-.019 14.364.057 19.62c.088 6.036.537 8.286.779 11.971.34 5.181.123 11.76.06 17.392-.03 2.719-.155 3.701-.45 4.225-.735 1.301-2.821-.199-3.095-.199-1.024 0 2.356.158 3.14.592.367.204.466.668.32.644-.753-.127-1.461-1.067-2.399-1.254-3.179-.634-6.754 1.284-8.421 1.539-1.938.296-3.995.334-9.877.837-7.143.611-10.993.074-13.394-.113-1.892-.149-6.217-.48-16.639-.407-6.907.049-17.097.219-22.563.258-5.897.042-9.943-.291-15.646-.601-6.214-.337-13.352-.198-16.616.281-1.547.227-2.792.325-4.472.429-2.919.179-8.492 0-14.36-.018-4.019-.013-8.213.441-17.705.554-2.317.027-7.987-.175-16.123-.141-6.484.027-13.026-.162-15.013-.168-1.897-.006-3.757.689-6.976.873-3.758.215-10.001.233-14.568-.476-2.071-.321-7.347-.414-11.026-.716-1.676-.137-4.494-.474-6.871-.327-2.41.148-4.796.719-13.111.842-6.521.096-10.498-.039-11.192-.295-.718-.264-1.39-.602-1.84-1.423-1.507-2.751.081-4.911.258-6.722.216-2.207.249-6.078.402-8.241.058-.809.182-1.736.2-6.772.018-4.516.057-13.011.129-17.649.102-6.555.852-11.996 1.107-15.594.063-.898.05-2.3.167-9.74.116-7.441.313-20.88.289-28.737s-.274-9.725-.422-11.746c-.302-4.131-.262-9.929-.335-16.8-.065-6.073.254-11.513.806-15.653.424-3.18.859-4.924 1.529-5.99.76-1.21 1.06 3.809 1.414 12.452.06 1.436.457 1.05.652.617 1.376-3.051.19-8.72.062-12.326-.052-1.463-.052-3.689.112-4.882s.528-1.286 1.936-1.35c6.778-.307 8.344-.346 10.891-.537 5.698-.426 10.394-.672 14.584-.695.606-.003-3.555.098-5.384.125-1.306.019 9.532.588 15.874.473 2.994-.054 6.663-.024 8.694.308 1.627.267 3.725.546 5.625.858.848.14 3.209.085 6.33.103 1.69.009 8.114-.158 17.658-.244 4.699-.043 8.68-.473 13.276-.508 4.247-.032 7.816.266 12.955.408 4.642.129 13.421.049 18.222.11 4.8.06 5.359.182 10.248.244 4.888.063 14.09.063 19.065-.03 6.35-.119 7.985-.917 12.257-.97 1.749-.02 3.11.212 4.321.43.556.101 1.006.12-.131.154-3.869.112-7.117.06-7.951-.025-.404-.041-.764-.116-.2-.166 4.114-.362 6.369.343 9.631.515 6.429.338 8.222-.173 9.951-.418 2.026-.288 4.589-.784 5.659-.988.235-.045-2.713.437-2.671.499 1.211 1.804 7.812.1 15.959.296 5.154.123 8.931.402 11.426.702 4.882.588 10.942.4 15.181.306.753-.016 1.8-.06 2.459.06s.898.39 1.053.711c.31.649.31 2.866.259 5.383-.014.717-.275.278-.492-.318a27 27 0 0 1-.601-1.9c-.153-.562-.219-.918-.23.167-.069 6.677.771 9.19 1.153 12.731.378 3.498.559 10.051 1.369 16.846.291 2.447.316 2.864.311.212-.014-8.386-.132-14.678-.222-16.03-.305-4.606-.629-6.71-1.154-8.102-.178-.473-1.094 2.01-1.605 5.928-.702 5.385.249 11.195.926 16.232 1.057 7.868.91 11.473 1.188 13.52.492 3.62-2.077-13.559-2.738-17.317-.094-.534-.142-.98-.128-1.025.573-1.837.668 9.816.781 15.457.06 3.035.59 5.591.606 9.746.005 1.538-.385 3.638-.541 10.63-.156 6.99-.204 18.803-.116 25.716.137 10.645.854 12.01 1.065 12.566.055.145.234-1.001.407-9.221s1.398-34.104 1.531-36.516c.134-2.413-.831 19.116-.79 25.463.049 7.538.192 11.829.279 16.732.058 3.341-.402 4.989-.519 5.918-.193 1.516-.876-3.958-1.151-5.091-.487-2.002-.687 9.26-.576 15.135.018.906.426-2.872.47-7.712.013-1.422-.056-2.728.141-1.292.777 5.636 1.081 11.922 1.096 15.13.009 1.882.112 3.361.144 3.941.275 5.137-1.052-9.282-1.237-9.674-1.017-2.146-.151 6.649.628 9.421.824 2.931.913 7.111.787 9.407-.036.642-.988-3.997-1.529-7.192-.381-2.243.144 11.887.334 17.324.014.416.11.795.356 1.006s.674.238 1.03-.016c2.419-1.727.773-6.643.327-7.295-1.797-2.626-2.18 4.228-3.417 5.375-1.488 1.378-3.28 2.237-5.246 2.606-1.375.258-2.87.151-7.201.361-3.662.178-14.312.316-15.278.353-3.945.15 12.635-.332 11.613-.777-2.908-1.268-5.811-.918-9.449-1.212-4.805-.389-6.233.421-11.341.672-3.677.181-10.492.24-15.242.333-7.232.141-10.204.086-11.745-.018-2.942-.199-6.29-.004-10.951.14-8.084.25-13.643.436-14.646.294-4.375-.622-11.98-.219-13.935.065-.88.128-2.525.142-4.571.222-1.38.053-7.214.214-15.447.281-6.254.051-12.19.442-16.584.473-4.987.035-12.071-.793-15.894-.548-.894.057-1.757.257-2.78.326-.568.038-1.232.069.127.086 8.74.113 10.688-.33 12.57-.713 2.053-.419 4.67-.938 5.906-.841 1.496.117-5.454 1.669-15.668 1.896-5.6.124-10.832.087-11.174-.08-2.506-1.227 7.042-.422 7.544-.637 2.255-.964-7.606-1.335-10.243-1.052-2.047.219-3.51.522-8.392.642-4.305.106-12.323-.006-17.857-.005-8.342.002-11.61.145-13.514.285-8.936.653-14.573-.154-16.77-.761-1.49-.413-1.301-2.633-1.32-3.654-.02-1.034-.288 3.177-.383 5.771-.015.424.602.287.97.083.743-.413 1.123-1.327 1.32-2.339.407-2.092-.418-4.05-.343-5.22.073-1.128 1.03 2.733 2.073 3.859.53.573 1.219 1.019 1.482 1.424.24.372-1.167.003-1.85-.388-1.667-.955-1.798-4.267-1.846-6.356-.006-.273-.016 1.054.16 1.575.177.522.53.197.779-.256 1.03-1.874.583-4.275.636-15.645.045-9.538-.615-12.481-.868-15.344-.214-2.41-.548 9.616-.793 13.699-.384 6.414-.627 9.772-1.116 12.116-.126.599-.506 1.277-.549 1.847-.143 1.906 1.197 3.347 2.016 4.391.181.232.64-.12.853-.432 1.48-2.17.048-6.745-.725-17.814-.34-4.88-.449-9.831-.43-13.987.013-2.862.253 6.564.539 6.972.236.337.572-2.479.958-6.519.482-5.034.097-10.348.007-14.283-.1-4.382-.694-9.29-1.092-15.17-.087-1.287-.162-1.767-.214-2.228-.051-.46-.082-.885-.053 3.519s.12 13.65.208 18.69c.117 6.686.607 9.514.893 12.71.1 1.114.169 2.009.327 2.333.321.656.372-1.837.439-3.534.12-3.028-.183-9.723-.666-17.201-.259-4.008-.163-6.504.1-15.821.168-6.019.07-16.802.07-23.446s-.034-8.826-.07-11.614c-.07-6.116-.174-10.016-.279-14.036-.036-3.548-.036-10.16-.13-17.529"/><path stroke="#000" stroke-linecap="round" stroke-width="2" d="m14.372 145.529.021-9.975c.021-9.802.063-29.317.062-39.57-.001-10.65-.095-12.945-.116-16.001-.017-2.485-.147-4-.224-11.405-.072-6.887-.074-20.126-.16-27.147-.092-7.426-.364-8.277-.202-9.077.078-.386.484-.625.84-.826.702-.396 5.553-.493 12.513-.526 3.04-.015 4.003.1 7.234.17 2.788.062 7.91.072 12.321.108 7.956.064 12.01.188 13.054.31 1.507.177 3.728.081 7.699.157 11.214.216 13.367.055 16.4-.107 3.717-.2 7.012-.175 10 0 2.188.127 4.365-.295 7.789 0 1.665.143 4.893.116 8.882.252 2.287.078 8.043.229 15.913.193 3.293-.015 6.414-.181 11.738-.162 8.542.031 10.339.296 13.324.52 7.263.541 9.507-.407 15.143-.459 4.067-.037 8.101.32 15.129.353 3.5.017 6.3-.379 10.273-.596 7.377-.403 13.297-.002 16.937.071 6.953.077 11.878.248 14.224.447 1.849.067 5.032.067 9.435-.031m.093.43a63 63 0 0 0 .022 1.458c.015.653.107 5.024.092 11.377-.006 2.514-.077 5.9-.093 10.77-.006 2.063-.077 3.404-.152 8.962-.061 4.531-.223 12.535-.272 18.887-.048 6.351.008 10.808.049 13.349.048 3.03.112 6.814.161 12.108.019 2.014.055 2.662.082 4.44s.053 4.668.094 9.83c.04 5.162.094 12.51.144 16.434.063 4.92.271 6.286.434 7.37.108.72.109 1.681.155 4.587.038 2.361.044 6.523.03 9.648-.023 5.089-.159 7.363-.31 7.848-.076.246-.278.443-.508.571-1.04.581-5.978.252-9.28.372-2.618.095-4.402-.45-5.558-.597-1.102-.14-2.605-.176-11.762-.24-4.117-.029-9.965-.023-13.12-.003-3.44.022-4.234.186-7.332.28-2.596.079-7.275-.002-9.791-.125-3.307-.16-6.868-.707-9.544-.542-.976.06-1.865.304-4.509.375-2.281.062-6.47.025-8.756.047-2.541.025-5.007.135-8.748.242-4.122.117-6.715.56-8.131.769-.401.06-.868.104-4.567.144-3.698.04-10.615.065-14.485.064-5.576-.001-7.247-.253-8.668-.408-.331-.038-.627-.063-2.747-.088s-6.056-.049-10.11-.074"/><path stroke="#000" stroke-linecap="round" stroke-width="2" d="M95.704 170.45c-.05 0-2.996.04-7.595.119-2.026.035-3.245.117-5.072.184-2.014.075-3.92.344-5.331.32-1.72-.03-3.954-.288-5.206-.379a81 81 0 0 0-4.527-.188c-1.536-.023-2.773.085-5.765.298-2.393.169-6.58.102-8.849.096-2.268-.006-2.494-.042-4.112-.06a391 391 0 0 0-6.318-.002c-1.992.019-3.104.095-5.418.123-1.505.017-3.682.026-5.906.03-2.225.004-4.43-.001-5.94-.066-2.262-.099-3.457-.324-5.272-.331-3.707-.016-6.2-.254-6.375-.666-.363-.856-.179-2.524-.21-4.986-.021-1.592.497-16.475.506-20.379"/><path stroke="#000" stroke-linecap="round" stroke-width="2" d="M13.703 20.838c3.5.162 7.653-.393 12.322-.809 6.365-.566 10.988 0 12.518.213 2.514.35 5.381.562 9.1.596 5.845.053 10.811.08 14.097.324 1.866.138 4.146.082 8.096.114 9.505.077 15.92.238 17.226.355 2.2.196 9.3-.582 17.783-1.074 1.657-.096 8.081-.107 17.421-.067 3.325.014 3.776.12 8.075.162 4.3.041 12.434.041 17.944.057 8.149.024 11.614.196 16.045.37 3.682.146 10.287.06 14.935.08 7.145.03 10.17.051 12.908-.018 2.282-.058 6.381-.023 11.865-.041 5.485-.018 12.231-.054 16.008-.018 4.381.042 6.274.334 8.413.49 5.694.413 14.2.402 14.949.632.377.116.664.444.853.769 1.87 3.22.775 11.438.962 16.615.156 4.327.311 8.563.649 11.95.576 5.78-.108 8.914-.66 16.529-.269 3.71.18 8.093.139 15.3-.026 4.666-.122 11.38-.143 15.035-.021 3.656.021 4.052.117 12.793.096 8.742.246 25.818.34 34.814s.13 9.391.165 11.067c.098 4.618.068 11.673-.007 18.375-.03 2.68-.068 3.895-.458 4.521-1.269 2.038-3.99.207-6.107.158-2.099-.048-5.872.631-9.107 1.169-1.513.251-2.76.601-12.152.734-8.978.128-26.513-.011-35.771-.086-9.259-.075-9.71-.182-12.329-.275-2.619-.092-7.393-.166-11.675-.187-4.281-.021-7.926.014-12.019-.01-8.526-.051-13.76-.095-14.999.095-.57.087-1.02.158-9.47.281s-24.885.298-33.778.326c-9.748.031-12.05-.223-14.423-.239-3.243-.022-7.025.79-11.141.898-8.441.22-12.405-.636-15.008-1.062-.94-.153-5.193-.21-11.12-.175-5.09.031-10.89.348-15.863.052"/><path stroke="#000" stroke-linecap="round" stroke-width="2" d="M21.458 181.76c-1.314 0-4.413-.117-6.26-.243-3.609-.246-5.883-.185-7.697-.335-2.844-.234-4.954-.162-5.414-.384-1.157-.559-1.145-2.264-1.046-8.512.094-5.893.472-17.309.665-23.307s.24-6.232.382-9.55.377-9.714.617-14.858.476-8.845.597-13.55c.12-4.706.118-10.305.13-13.31.011-3.004.037-3.245.033-6.77-.004-3.526-.038-10.328-.02-14.63m.15.357v-3.537c0-2.798 0-8.013-.132-15.297-.133-7.284-.398-16.48-.505-21.629-.108-5.15-.05-5.975.008-6.865.24-3.722.255-6.317.717-7.233.175-.346.487-.541.805-.715.792-.432 2.393-.211 3.718-.459.525-.135 1.432-.2 2.863-.192.8.007 2.151-.053 3.134 0"/><path stroke="#000" stroke-linecap="round" stroke-width="2" d="M8.53 46.724v-2.788c0-2.719 0-8.121-.01-11.571-.008-3.45-.027-4.784.946-5.471 2.462-1.74 5.32-.727 7.873-.788 2.193-.052 6.206-.02 8.418-.01 2.502.029 3.143.109 3.792.208.306.04.565.058.883.283M7.7 148.176c0 .032 0 .668-.041 1.771-.031.823-.394 3.582-.681 9.972-.179 3.96-.13 9.385-.007 12.241s.395 2.982.687 3.055c1.105.279 1.993.299 2.991.471 1.677.29 2.86.518 5.2.654 4.605.268 8.085.079 8.902.179a85 85 0 0 0 3.432.146c1.062.021 2.682.041 4.35.061m179.067-.6c2.084 0 6.369.11 9.756.194 1.349.033 4.159.138 7.997.083 3.867-.056 5.951-.556 7.277-.875.592-.142 1.18-.265 1.638-.478 1.588-.739.405-4.495.502-7.279.049-1.643.097-2.894.146-5.84.024-2.547.048-7.228.073-12.051M215.21 26.136c.049 0 1.804 0 5.498.076 1.966.041 4.114.23 5.934.318 4.951.24 5.773.221 6.498.268.651.043 1.656.08 2.665.139 1.453.085 2.187.204 2.919.485.403.155.663.505.813.852.15.346.099 1.561.136 4.528.024 1.973.052 4.895.076 6.485.086 2.124.166 2.833.198 4.872.016 1.713.031 4.805.047 7.99M91.93 20.393c0-.315.282-1.36.853-2.22.232-.35.571-.558.957-.708.227-.088.563-.05.82.015 1.177.299 1.689 1.814 1.925 2 .106.083.294-.094.4-.239.443-.602.836-2 1.698-3.464.453-.769 1.324-1.266 2.037-1.699.524-.317 1.33-.313 2.224-.237 1.134.095 1.852 1.727 2.89 3.208.315.448.343 1.015.25 1.628-.149.975-1.4 1.1-2.466 1.26-.331.05-.731.018-1.016-.054a.87.87 0 0 1-.565-.406c-.8-1.276-.156-3.643.725-4.872.79-1.103 2.294-1.52 3.804-1.69 3.304-.371 4.781.693 6.403 1.704 1.314.819 1.778 2.058 2.18 3.263.182.544.147 1.082.045 1.518-.103.436-.732.522-1.427.61-1.216.152-2.634-.435-3.709-1.277-1.234-.965-1.496-2.343-1.767-4.15-.252-1.677.541-3.453 1.746-4.757 1.617-1.75 3.361-2.147 5.134-2.497 1.415-.28 2.62.01 3.75.421 4.299 1.564 5.399 3.506 6.122 4.94.499 1.634.8 3 .837 3.866.018.52-.004 2.373-.077 3.444"/><path stroke="#fff" stroke-linecap="round" stroke-width="2" d="M132.223 186.371a33 33 0 0 0-.199.993c-.146.755-.41 2.142-.577 3.339-.166 1.196-.226 2.161-.277 2.756s-.094.792-.255 1.24a37 37 0 0 1-.61 1.544c-.267.633-.31.876-.289 1.074.035.32.114.527.1.615-.005.034-.042.036-.06.061-.164.241.07 1.033.184 1.333.022.059.099.081.173.098.079.017.352-.258.932-.743.335-.28.811-.55 1.081-.726.337-.22.514-.417.771-.74.147-.186.294-.44.414-.671.221-.427.303-.842.339-1.17.042-.38-.126-.745-.247-.966-.062-.112-.159-.254-.264-.529-.173-.454-.239-.929-.278-1.252a4.4 4.4 0 0 0-.303-1.099c-.11-.272-.162-.586-.217-1.074-.112-1.002-.124-1.206-.207-1.304-.024-.028-.038.016-.057.875-.018.859-.048 2.538-.119 3.641s-.183 1.58-.272 1.903c-.133.484-.26.719-.422.956-.308.385-.536.67-.595.763-.027.045-.046.083-.066.123m-3.12-182.954c-.043-.074-.086-.148-.247-.657a24 24 0 0 1-.63-2.4c-.191-.95-.287-1.878-.345-3.02s-.075-2.469-.113-3.323c-.053-1.199-.187-1.646-.265-1.805-.115-.236-.388-.298-.653-.789-.061-.113-.074-.183-.114-.2-.039-.018-.097.016-.147.086-.116.162-.152.463-.179.97-.043.81-.003 1.357.024 1.498.043.225.126.411.237.622.219.412.408.726.567 1.736.15.944.372 2.774.495 3.749.132 1.042.149 1.152.206 1.227q.045.058.118.082c.098.033.21-.004.325-.06.313-.152.519-.633.795-1.546.097-.32.078-.634.034-1.197-.03-.386-.131-.969-.196-1.687s-.105-1.552-.146-2.058c-.073-.885-.271-1.099-.457-1.333-.388-.406-.66-.712-1.024-1.114a6 6 0 0 1-.422-.551"/><path stroke="#000" stroke-linecap="round" stroke-width="2" d="M97.703 183c0 .315.28 1.359.851 2.22.233.351.572.558.958.708.227.088.562.051.82-.015 1.177-.299 1.689-1.814 1.925-2 .106-.083.294.094.4.239.443.603.836 2 1.697 3.464.453.769 1.325 1.267 2.038 1.699.523.317 1.329.313 2.224.237 1.134-.095 1.851-1.727 2.89-3.208.314-.448.343-1.015.25-1.628-.149-.975-1.4-1.1-2.466-1.26a2.8 2.8 0 0 0-1.016.054.87.87 0 0 0-.565.406c-.8 1.276-.156 3.643.724 4.872.79 1.103 2.295 1.52 3.805 1.69 3.304.371 4.781-.693 6.403-1.704 1.314-.819 1.777-2.058 2.18-3.263.182-.544.147-1.082.044-1.518-.102-.436-.731-.522-1.426-.609-1.216-.153-2.635.434-3.71 1.276-1.233.965-1.495 2.343-1.766 4.149-.252 1.678.541 3.454 1.745 4.758 1.617 1.751 3.362 2.147 5.135 2.497 1.415.28 2.619-.01 3.749-.421 4.3-1.564 5.4-3.506 6.123-4.939.499-1.635.8-3.001.837-3.867.018-.52.724-3.765.651-4.837"/><path stroke="#000" stroke-linecap="round" stroke-width="2" d="M131.703 182.5c0 .72-.019 4.142-.949 8.513-.637 2.988-1.753 5.149-1.994 7.004-.145 1.112.015 1.964.147 2.37.065.204.24.358.535.443 1.453.42 2.77-.953 3.531-1.666.696-.653 1.15-2.465 1.301-5.33.085-1.619-.42-2.817-.578-3.753-.227-1.337-.397-3.652-.628-4.739-.158-.742-.308-2.297-.365-2.842-.119-1.126.711 3.533 2.177 7.996.386 1.173.944 1.485 1.658 1.854 2.105 1.085 4.941.903 6.414.721 1.839-.226 3.475-2.063 4.746-3.681 1.015-1.29 1.258-2.767 1.412-3.796.188-1.253-.117-2.18-.522-2.569-1.024-.983-3.973-.754-5.496-.333-.885.245-.737 2.848-.617 4.371.107 1.357 1.884 1.821 3.018 2.294a23 23 0 0 0 4.579 1.392c4.505.879 5.929-.364 6.934-.935.896-.509 1.28-1.365 1.74-2.657.456-1.28.004-3.074-.458-3.842-.426-.709-1.31-.868-2.027-1.246-.211-.112-.522-.08-.724.047-.424.268-.412 1.589-.336 3.096.097 1.946 2.979 2.73 4.07 2.933 1.903.354 3.046-.357 3.847-1.023 1.057-.879 1.016-1.96 1.19-2.881.141-.742.127-1.35.292-1.389.475-.112.191 1.07.428 1.441.232.361.633.535.952.703.165.087.388.057.627-.065.947-.867 1.379-1.567 1.495-1.962a5 5 0 0 0 .114-.759M126.703 19.5c0-.719-.019-4.233-.949-8.604-.637-2.988-1.753-5.15-1.994-7.004-.145-1.112.015-1.964.147-2.37.065-.204.24-.358.535-.443 1.453-.42 2.77.953 3.531 1.666.696.653 1.15 2.465 1.301 5.33.085 1.62-.42 2.817-.578 3.753-.227 1.336-.397 3.652-.628 4.739-.158.741-.038 2.389-.095 2.933-.119 1.127.441-3.624 1.907-8.088.386-1.172.944-1.485 1.658-1.853 2.105-1.086 4.941-.903 6.414-.722 1.839.227 3.475 2.064 4.746 3.681 1.015 1.29 1.258 2.768 1.412 3.796.188 1.253-.117 2.18-.522 2.57-1.024.982-3.973.753-5.496.332-.885-.244-.737-2.848-.617-4.37.107-1.357 1.884-1.821 3.018-2.294a23 23 0 0 1 4.579-1.393c4.505-.879 5.929.365 6.934.936.896.509 1.28 1.365 1.74 2.657.456 1.28.004 3.074-.458 3.841-.426.71-1.31.869-2.027 1.247-.211.111-.522.08-.724-.047-.424-.268-.412-1.59-.336-3.097.097-1.945 2.979-2.73 4.07-2.933 1.903-.354 3.046.358 3.847 1.024 1.057.879 1.016 1.96 1.19 2.881.141.742.127 1.35.292 1.388.475.113.191-1.07.428-1.44.232-.362.633-.535.952-.703.165-.088.388-.058.627.065.947.867 1.379 1.566 1.495 1.962.049.197.079.386.114.76"/><path fill="#ffe988" d="M30 51.785h189v106H30z"/><path stroke="#000" stroke-linecap="round" stroke-width="2" d="M107.909 42.05v9.312c0 7.108.024 11.177.206 11.45 1.055 1.582 2.957-3.981 3.625-4.9.292-.402.585-.782 1.031-.895 2.267-.577 3.511 4.25 5.081 6.518.527.762 1.059 1.129 1.517 1.421.206.132.475-.028.67-.268.906-1.118 1.436-3.292 2.107-4.698a2.3 2.3 0 0 1 1.005-1.028c2.155-1.11 4.009 4.03 4.323 4.22.328.199.429-2.454.348-6.74-.044-2.33-.243-4.97-.339-7.104-.165-3.676-.166-6.155-.523-7.432-.274-.983-3.358-.125-6.156-.081-3.961.063-8.492.313-10.159.38-.373.02-.605.063-.93.094-.325.03-.738.05-1.701-.116M74.033 83.77c-.053-4.845-.052-7.46.081-7.558.645-.479 1.265 1.306 2.251 2.207 1.871 1.71 1.376-3.415 1.962-3.726.166-.088.425-.025.615.055.37.155.522.526.663.947.249.741.325 2.6.416 4.998.044 1.038.082 1.714.108 2.17l.05.89m6.368-9.683c-.872 0-2.557.054-3.188.346-.151.07-.22.198-.264.446-.043.247-.043.635.065 1.822.108 1.186.324 3.158.435 4.48.112 1.323.112 1.936.26 2.193 1.079-.059 2.29-.208 3.199-.186.358.022.506.066.718.141"/><path stroke="#000" stroke-linecap="round" stroke-width="2" d="M84.068 80.435c.018 0 .782-.032 2.008-.095.47-.031.633-.06.804-.076.172-.015.347-.015.527-.015m2.581-3.971c0 .214.017 2.787.027 5.101 0 .148-.04-2.98-.017-4.516.024-1.535.105-1.688.229-1.818.468-.49 1.734-.378 2.783-.076 1.197.345 1.338 2.232 1.576 4.074.15 1.159-.049 2.056-.228 2.524-.14.365-.476.585-.868.797-.9.486-1.742.093-2.313-.121-.137-.04-.284-.07-.402-.127-.117-.058-.201-.141-.472-.35m7.209-6.354v1.53c0 1.193 0 3.405.012 4.652.013 1.246.038 1.46.064 1.99m-.896-12.364c0 .019.024.144.116.342.045.097.18.126.292.113s.22-.081.277-.234c.259-.708-.087-1.124-.253-1.318-.08-.094-.217-.11-.346-.117a.58.58 0 0 0-.359.085.56.56 0 0 0-.192.315c-.037.129-.049.267.06.657m4.312 3.841c0 .036.018 1.723.139 4.731.092 2.317.523 3.407.647 3.632.133.242.42.36.724.445a.9.9 0 0 0 .598-.063c.787-.393.826-1.355 1.028-2.253.054-.331.067-.583.074-1.65l.033-4.512m3.517 7.959v-1.162c0-1.144 0-3.423.033-4.854.044-1.944.187-2.617.276-2.876.042-.123.178-.184.403-.026 1.217.851 1.613 2.039 2.201 3.085.166.296.336.498.483.618.544.437 1.158-3.033 1.769-4.277.063-.129.223-.116.337-.006.795.762.78 3.264.98 4.65.114.787.306 1.518.448 2.636.033.994.079 1.62.117 1.911.016.139.025.257.035.378m10.5 1.125-.01-1.17c-.009-1.151-.029-3.444 0-4.825.054-2.534.69-3.434 1.176-4.01.111-.13.292-.105.448-.037.35.153.577.562.974 1.898.336 1.131.799 3.224 1.083 4.508.339 1.707.408 2.362.434 2.827.013.245.025.511.067.813"/><path stroke="#000" stroke-linecap="round" stroke-width="2" d="M125.38 81.029c.026 0 .053 0 .244-.035s.545-.106.909-.142c.364-.037.728-.037 1.132-.097m2.691-5.758c0 .399.098 1.909.405 4.062.109 1.453.27 2.998.353 3.354.039.16.068.278.099.515m-.736-8.172c0-.018.012-.164.131-.446.315-.742 1.177-.6 2.392-.573.488.01.832.373 1.15.707.296.312.393.768.454 1.255.067.536-.205 1.08-.647 1.523-.638.64-1.257.653-1.858.734-.144.02-.268.011-.274.099.109.262 1.365 1.71 3.14 3.698.637.72.739.853.843 1.075m2.879-7.912a1071 1071 0 0 0 .339 6.734c.079 1.422.102 1.555.126 1.812m-3.537-9.084c.108 0 1.195 0 2.837.011.772.033 1.186.067 1.792.089.355.01.81.02 1.278.03m2.719.942c0 .14 0 2.044.007 4.986a37 37 0 0 0 .031 1.69c.013.243.024.385.065.647m-.647-11.169c.017 0 .166-.056.424-.27.363-.302.31-.895.255-1.242-.024-.152-.166-.221-.354-.267a1.4 1.4 0 0 0-.632-.006c-.313.091-.423.402-.503.713-.031.203-.043.497.005.686s.157.265.479.404m7.084 2.588c-.186-.024-1.029-.071-1.645.077-.241.058-.43.397-.661.786-.266.447-.244 1.834-.188 3.62.055 1.73 1.29 2.598 2.087 3.153.947.251 1.784.198 2.062.023.132-.097.245-.212.455-.458m1.835-7.701c0-.018.017.587.106 1.785.084 1.137.466 2.908.679 4.862.133 1.218.153 1.767.261 2.301a80 80 0 0 1 2.828-.143c.305-.01.528-.022.757-.034m6.307-8.911c-1.224.011-3.227.045-4.106.337-1.761.586.035 4.015.147 5.105.039.383.07 1.412.13 2.643.021.422.181.418.367.389 1.02-.162 2.239-.36 2.888-.447.132-.012.276-.023.468-.034.193-.01.429-.02.673-.03"/><path stroke="#000" stroke-linecap="round" stroke-width="2" d="M161.707 78.085h.228c.181 0 .522 0 .761-.015s.366-.045.527-.076m7.752-4.576c-.712 0-2.428.196-2.929.573-.441.332-.37 1.571-.176 2.483.039.183.23.285.376.372.985.585 2.634.262 2.901.488.905.763 1.104 2.291 1.096 3.739-.002.447-.443.664-.867.875-1.142.234-2.441.062-2.968-.232-.113-.085-.229-.2-.497-.5"/></svg>