<svg xmlns="http://www.w3.org/2000/svg" width="249" height="243" fill="none" viewBox="0 0 249 243"><path stroke="#ecbcd2" stroke-linecap="round" stroke-width="6.485" d="M111.3 133.55c-.392-.688-1.242-1.611-3.266-3.837-1.664-1.83-4.115-1.701-5.032-1.783-1.004-.09 2.068 1.341 3.074 2.369.438.449.902.836 1.113 1.227.09.166-.277.357-.571.391-1.26.146-2.252-.997-4.222-2.039-1.321-.698-2.886-1.312-4.916-2.706-3.19-2.19-5.405-4.313-6.323-5.297-2.848-3.051-6.539-7.125-7.53-8.094-1.104-1.081-1.64-2.258-2.12-3.451-.428-1.065-1.157-2.069-2.103-3.091-.225-.243-.393-.489-.197-.578 1.469-.667 2.38.037 2.801-.225 1.595-.994.401-4.909.685-6.151.19-.825.363-1.916.4-2.746.073-1.687-1.118 5.131-1.917 6.32-.721 1.073-2.509.527-2.931.595-.434.069-.268.91-.12 1.418.077.265.348.47.774.585 1.016.276 2.11.003 2.88-.287 1.453-.544 1.731-4.645 1.908-7.543.074-1.2 1.481-2.146 3.071-3.485 1.28-1.077 1.194-3.467 2.439-4.989 1.19-1.455 3.566-2.161 4.733-2.616.992-.387 2.183-.369 3.386-.333.277.008.446.353.747.364 1.673.065 2.525-1.88 3.379-2.635.555-.491 1.407-.314 1.966-.188 1.215.272 1.616 2.094 2.209 2.628.214.193-.556-1.09-.692-1.624s.069-.762.325-.818.557.067.827.335c1.226 1.219 2.101 4.36 2.887 6.858.216.687.213 1.772.269 4.702s.056 7.7.318 10.782c.261 3.081.784 4.33 1.053 2.918 1.036-5.434.243-10.016.478-8.518.274 1.751.811 5.522 1.094 9.027s.284 6.631.219 8.598c-.088 2.689-.388 6.687-.379 11.724.003 1.772.269 1.946.676 2.141 1.931.922 3.554.824 5.38.302 2.276-.65 3.768-1.791 4.262-2.343 1.278-1.429 1.563-2.861 1.848-8.004.063-1.133.138-1.491.18-1.512.275-.138-.53 2.685-1.432 5.566-.17.544.345-3.401 1.7-9.711.629-2.929.766-5.38 1.136-7.742s.87-4.578 1.144-7.305.305-5.897.446-8.275c.343-5.754 1.114-7.055 1.446-7.928.365-.96.513 2.032 1.02 2.942.569 1.02 2.34.437 3.54.356 1.638-.112 3.41-.979 4.852-1.15 1.145-.137 3.768-.547 5.642-.167 1.242.253 2.753-.15 4.202-.555 1.362-.38 2.695-.608 3.562-.571 1.367.058 2.743 1.413 4.244 2.758 1.055.944 2.887 1.535 4.397 2.142.527.212.904.696 1.245 1.322.848 1.563.345 3.4 1.092 7.55.373 2.071.013 3.514-.301 4.301-.513 1.284-2.015 2.397-5.7 6.552-2.199 2.481-5.539 3.853-8.752 6.392-2.756 2.177-5.448 3.858-8.858 6.242-2.492 1.743-6.714 4.299-9.136 5.752-3.95 2.37-5.786 3.037-6.889 3.744-.464.297-.728.795-.966 1.293-.124.262-.11.598.153 1.012 1.239 1.95 2.942 2.186 5.321 2.708 2.561.561 3.559 1.423 5.221 1.892 2.48.7 5.415-.437 8.27-.719.888-.088 1.522-.525 2.643-.997 2.188-.92 6.005-1.425 10.244-1.784 5.549-.469 7.932-1.469 10.725-2.116 2.694-.624 4.659-.908 6.16-1.128.261-.038.523-.087.442-.145-1.661-1.209-6.097.205-9.711 1.274-.921.273-2.01.622-4.623 1.327-4.514 1.22-9.205 1.496-12.244 1.651-4.816.245-9.383.658-10.217 1.034-.447.201 3.81.401 8.511.395 2.145-.003 3.455-.527 5.735-.861 3.182-.466 6.174-.46 8.436-1.193 4.285-1.388 5.197-3.043 5.888-4.002 1.146-1.591-5.296.681-6.533 1.462-.883.558-1.692.953-1.95 1.081-2.015.996 6.07-1.762 7.7-1.914 1.223-.114 2.542-.815 4.819-1.392 2.217-.562 4.218-.352 5.819.207 1.365.476 2.19 1.893 2.656 3.246.418 1.215 1.746 3.5 2.802 5.589.809 1.602 1.489 2.124 1.963 2.454 1.223.852.252 3.307-1.107 9.053-.566 2.393-1.283 4.415-.643 6.477.43 1.387 2.136 1.39 2.769 2.621.61 1.185-.097 2.498-.54 3.164-1.313 1.974-4.465 2.629-5.663 3.379-1.044.654-1.668 1.955-2.02 3.874-.246 1.344-1.148 2.315-2.055 3.256-.88.912-2.385.384-2.668.246-1.118-.545 2.708.617 3.329.551.288-.031.498-.198.486-.334-.013-.135-.262-.27-.601-.297-2.368-.186-5.916 1.092-9.578-.811-2.553-1.327-7.015-4.407-9.492-6.07-2.814-1.889-4.871-4.13-8.252-7.368-4.311-4.128-5.777-6.926-7.495-8.454-1.696-1.508-2.85-2.04-4.279-2.392-1.365-.336-2.512.14-2.957.633-1.549 1.717-.27 5.216.26 6.547.413 1.039 1.266 2.253 2.625 7.576 1.179 4.618 2.18 8.16 3.069 11.039.533 1.728.7 3.251 1.367 4.385a21.1 21.1 0 0 1 2.31 5.681c.358 1.458.565 3.559.749 4.867.266 1.895-.53-6.153-1.795-8.921-1.261-2.76-2.111-3.463-2.217-3.837-.041-.146.34-.183.659-.131.69.112 1.216.611 1.523 1.198.342.654.244 1.629.337 2.751.111 1.323.799 4.997 1.588 10.076.512 3.293.271 4.814.14 5.345-.137.557-2.252.837-4.958.87-.666.008 2.122.614 3.328 1.141.405.177 1.021.112.315.156-5.129.319-6.437-.277-9.002-.38-1.698-.069-3.615.301-4.855.535-.717.135-1.398-.203-1.895-.685-1.089-1.058-1.683-2.795-3.112-4.435-.872-1.001-2.014-1.531-3.189-1.935-.638-.22-1.456-.313-2.293-.291-1.393.037-2.929 1.444-4.362 1.878-.295.089-.563.076-.756-.058-.967-.674-.588-2.809-.749-4.233-.205-1.807-1.137-2.738-1.747-4.171-.1-.235-.211.878-.313 1.14-.989 2.551.048-6.684 1.175-8.196.569-.762 3.276-2.611 7.147-5.819 5.004-4.146 5.471-6.25 5.601-6.521.692-1.441-2.262 3.191-4.382 4.767-2.985 2.219-5.778 3.948-7.146 4.873-.47.318-.695-.059-.587-.598.64-3.181 4.644-6.628 7.563-9.491 4.669-4.579 5.769-7.762 6.56-9.911.469-1.271-.602-3.098-.97-4.466-.153-.569-.638-.953-1.27-1.239-1.655-.749-4.353.452-6.088 1.466-.166.097 1.014-.255 1.172-.324.497-.218-1.603.914-3.258 2.219-2.306 1.818-4.802 4.719-6.997 7.174a24 24 0 0 1-4.102 3.684c-2.052 1.461-3.451 1.903-4.441 2.714a564 564 0 0 1-4.43 3.578c-.996.799-1.985 1.548-2.955 2.292-.522.4-.841.952-1.236 1.299-.394.346-1.606.328-3.11.243-1.727-.098-3.054-1.908-4.7-2.971-3.03-1.955-3.808-3.475-4.4-4.56-.712-1.305-.721-2.533-1.587-3.897-1.256-1.981-2.5-3.221-3.926-4.292-1.291-.969-2.668-1.598-3.334-2.327-.744-.815 1.845-2.602 1.812-3.933-.033-1.363-1.684-4.175-2.653-7.661-.242-.873-.711-1.818-1.125-2.831-.142-.348.224-.454.675-.497 1.068-.1 2.907.308 4.855.854 1.007.283 4.627.259 9.924.256 2.479-.002 3.369-.147 5.201-.573 3.993-.927 8.633-1.23 11.825-1.174 3.291.058 7.305-.329 9.423-1.053 2.26-.772 3.973-1.14 4.753-2.05 1.013-1.179-1.042-3.321-1.668-4.677-.686-1.485-.04-2.997.152-3.398.832-1.741 2.437 5.196 2.987 7.158.334 1.192-.061 2.715-.869 4.329-1.525 3.044-3.623 3.995-5.813 4.765-1.332.468-5.976.503-12.3.774-5.973.256-9.136.127-12.494-.375-2.557-.381-7.457.18-9.744.52-2.287.341-1.841.858-.698 2.06 5.499 5.78 6.718 8.298 7.082 9.963.123.566.088 1.332-.08 1.583-1.096 1.637-3.405-3.506-4.068-4.897-.295-.62-.32-1.339-.024-1.885.163-.302.886-.144 1.363.045.912.362 1.453 1.275 1.97 2.212.653 1.182.643 2.455.372 3.116-.133.325-.81.221-1.257.086-.84-.254-1.525-1.41-2.172-2.886-1.379-3.147-.226-6.446.238-7.535.207-.485.646-.681 1.363-.82.716-.138 1.77-.174 2.75.302 2.122 1.031 3.258 3.456 4.14 5.392 1.912 4.2.975 8.357.737 9.076-.109.326-.32.524-.625.673s-.729.23-1.12.092c-2.462-.869-3.902-5.693-4.515-8.325-.144-.618-.044-1.302.296-1.75.34-.449 1.018-.657 1.873-.534 4 .578 6.053 4.928 7.204 8.175.537 1.514.202 2.965-.037 3.989-.23.99-1.36 1.384-2.252 1.651-1.007.301-2.431-.311-3.983-1.595-1.798-1.488-2.184-3.949-2.447-5.777-.251-1.744.21-3.484.897-4.868.505-1.02 1.779-.978 2.693-.907.468.037.928.215 1.358.536 2.398 1.792 2.49 6.274 2.471 9.745-.006 1.069-.745 1.577-1.322 1.939-.644.404-1.499.247-2.181-.02-2.263-.889-1.615-5.167-1.462-6.713.063-.638.458-.917.84-1.069.787-.312 1.868.05 3.146.81 1.82 1.083 2.972 3.58 3.892 5.774.722 1.719.304 2.948.043 3.446-.255.487-1.086.557-1.964.468-.46-.046-.895-.396-1.183-.77-.568-.737-.38-1.888.033-2.949.401-1.029 1.584-1.587 2.796-2.096a5.6 5.6 0 0 1 3.43-.289c.358.083.663.461.849.819.363.7.1 1.687-.416 2.712-1.286 2.552-4.309 2.848-5.874 2.81-.646-.016-.913-.584-1.16-1.171-.542-1.285-.654-3.923-.469-7.351.157-2.89 1.447-4.809 2.565-6.138 2.367-2.813 5.084-2.986 5.915-2.863.396.058.68.367.922.744 1.686 2.614.056 7.892-1.527 10.101-.594.829-2.016.806-3.364.586-1.184-.193-1.689-1.796-2.125-3.672-.667-2.862.055-5.41.902-6.812.982-1.626 3.017-2.34 4.87-2.742 1.818-.393 3.45.106 4.638.865 1.358.867 1.383 2.658 1.188 3.745-.21 1.162-1.677 1.896-3.147 2.511-1.55.649-3.78.444-5.935.013-.947-.19-1.383-1.026-1.654-1.671-.5-1.192-.196-2.552.408-3.853.715-1.542 2.777-2.1 4.371-2.574.769-.229 1.51-.216 2.252.058 1.604.59 2.435 2.195 2.762 3.693.334 1.535.004 3.064-.566 4.388-1.1 2.556-3.849 2.708-5.43 2.938-.612.089-.867-.183-1.031-.535-.374-.801-.04-2.621.858-4.932.895-2.307 3.434-3.089 5.328-3.689 2.272-.721 4.135-.461 4.939-.134.85.345.819 2.138.733 3.959-.082 1.757-1.413 3.388-3.041 4.979-1.8 1.758-3.683 2.074-4.52 2.048-.43-.014-.873-.079-1.135-.332-.559-.539-.308-2.029.28-3.857.75-2.337 3.847-4.238 6.658-6.198 3.583-2.498 5.788-2.153 6.941-1.991.506.071.766.486.911.902.304.877-.163 2.074-1.022 3.402-2.221 3.432-6.328 4.138-9.002 4.66-.521.102-.814-.17-.818-.474s.279-.742 2.262-2.285 5.659-4.177 8.597-6.076c4.908-3.172 7.683-4.28 8.604-4.57.411-.13.729-.14.594.131-2.173 4.345-9.289 6.016-9.2 5.824.664-1.437 4.297-2.916 7.462-5.5 1.872-1.529 2.558-2.538 2.876-3.167.144-.284.041-.584-.623-.817-1.869-.657-3.565-.692-4.107-.984-.265-.143-.36-.492-.278-.759.46-1.495 3.475-1.979 5.706-2.26.516-.066.998.164 1.314.578.73.956.595 2.39.47 3.463-.122 1.044-1.1 1.81-2.211 2.375-1.316.67-2.926.027-4.163-.841-2.551-1.79-2.343-4.8-2.364-6.56-.004-.34.172-.593.703-.743 1.432-.403 3.361.229 5.159 1.276 1.885 1.099 3.461 3.505 4.934 6.114 2.396 4.243 1.07 8.183.612 8.904-.212.334-.546.483-.833.56a.87.87 0 0 1-.836-.178c-.667-.541-1.052-1.894-1.375-3.242-.363-1.52.034 7.74.256 8.864.057.29.323-3.053-.112-8.238-.236-2.808-1.306-5.88-1.642-7.131-.15-.554 1.715 2.821 4.272 7.179 1.924 3.28 2.003 7.729 1.724 10.517-.077.77-1.158 3.688-2.873 9.156-3.148 10.033-5.01 11.318-5.246 11.303-1.036-.065.261-3.332-.047-5.239-.312-1.935-3.958 1.738-5.361 3.489-3.695 4.609-3.931 7.817-3.723 8.847.091.452.499.652 1.012.802.514.151 1.209.22 1.863.108 3.164-.537 5.433-6.878 6.022-10.648.084-.544-.214-.756-.645-.932-1.087-.446-2.305-.459-3.184-.275-.965.201-1.457 1.595-1.834 2.942-.365 1.308-.18 2.704.247 4.065.535 1.708 2.309 2.323 3.324 2.7 1.286.477 2.362.288 2.819-.121.719-.642.716-4.073 1.676-6.214 3.954-8.819 4.601 10.846 4.455 11.566-.056.273-.522.156-.961-.134-1.037-.687-1.896-2.079-2.611-3.674-.744-1.664-.526-2.992-.133-3.416 1.822-1.962 5.325 3.285 5.736 4.401.194.529.139 1.051-.147 1.542s-.86.953-1.405 1.191c-.546.238-1.047.238-1.519.077-.968-.33-1.568-1.582-1.893-2.879-.131-.524-.072-.801.195-.957.686-.401 2.263.293 3.917 1.348 1.27.809 1.65 2.193 2.019 3.191.162.437.208.758-.001.941-.21.184-.693.227-1.113-.037-.958-.601-1.192-2.092-1.194-3.522-.001-.767.3-1.601.803-2.152 1.011-1.106 2.926-1.032 4.544-.83 1.524.19 2.419 1.748 2.955 3.026.226.538.226.906.186 1.204s-.156.526-.35.658c-.407.276-1.184.036-1.895-.331-.307-.159-.359-.485-.421-.819-.061-.335-.092-.725.317-.926s1.259-.201 1.88.028c1.126.416 1.462 1.609 1.617 2.43.069.369.052.651-.079.908-.284.555-1.126.816-2.127.967-2.492.377-4.255-1.269-4.699-1.86-.23-.306-.19-.793.291-1.114 1.294-.865 3.285-.695 4.682-.633 1.02.045 1.888.9 2.609 1.942.294.426.245.767.13 1.034-.234.544-1.981.738-4.456.556-1.093-.08-1.78-.687-2.194-1.165s-.513-.948-.418-1.325c.187-.73 1.326-1.153 2.767-1.527 1.736-.451 3.215-.009 3.926.473.588.398.599 1.377.459 2.204-.068.406-.676.589-1.197.669-1.062.165-2.373-.81-3.753-2.39-2.726-3.118-2.238-6.822-1.869-9.025.158-.939.803-1.38 1.315-1.659.938-.514 2.067-.201 2.983.294.405.219.559.581.7.875s.232.565-.02.566c-.892.003-2.434-1.633-4.194-3.79-3.497-4.285-3.356-9.302-3.011-10.593.13-.487.716-.395 1.322.172 1.57 1.468 3.327 5.747 5.378 11.217 1.661 4.428 1.875 7.987 1.864 10.763-.006 1.408-.274 2.804-.667 3.637-.394.832-.972 1.056-1.615 1.043-.644-.014-1.334-.27-1.926-.79-1.26-1.107-2.272-4.187-3.463-8.048-.54-1.748-.674-3.147-.801-5.465-.305-5.531-.13-9.207.137-9.816.122-.28.415-.392.646-.381 2.843.144 3.737 8.297 3.703 9.193-.036.963-2.034-4.212-3.148-7.235s-1.776-5.57-2.143-8.187-.42-5.227-.309-6.608.386-1.454.647-.54c.786 2.751.83 7.422 1.076 11.987.104 1.926.403 3.041.564 3.468.507 1.338-1.785-5.975-3.02-7.265-.947-.989-1.918 2.532-3.198 5.265-.897 1.914-2.624 4.735-4.066 6.813-3.6 5.182-5.366 5.459-6.732 5.762-.329.073-.628.125-.676.245-.125.311 1.167.724 3.156 1.263 2.746.744 6.47 1.039 9.854 1.167 2.877.109 4.402-.673 5.111-1.232.658-.519-.785-2.604-2.001-4.953-.965-1.864-1.436-4.307-1.914-8.199-.294-2.389-.16-5.671.064-8.88.437-6.278 1.128-9.9 1.194-10.858.147-2.14 1.886-4.149 3.674-7.232.381-.656.607-.809 1.193-.883 3.151-.396 6.115 1.204 9.021 3.126 5.774 3.819 5.794 5.415 5.79 5.789-.046 3.551-7.965-4.771-9.212-5.812a8.4 8.4 0 0 0-2.901-1.557c-.279-.08 2.854 1.715 7.084 4.186 5.867 3.429 6.879 6.526 8.627 8.894 2.37 3.208 4.84 5.105 6.539 6.486 3.579 2.911 6.077 5.216 6.781 5.576.67.344 1.464.376 2.342.257 2.736-.372 4.929-2.626 6.233-3.32.725-.385 1.514-.768 1.995-.925.502-.163-2.01 2.759-4.499 5.509-.798.881-.248 1.05.184 1.044 1.914-.024 3.668-2.184 4.695-3.575 1.724-2.336 2.366-7.793 3.272-9.754.16-.348.537-.588.809-.533.272.056.502.459.62.901.238.889-.068 1.707-.537 2.363-.566.79-1.56 1.267-2.485 1.519-.398.109-.674.086-.936-.156-.263-.241-.51-.724-.638-1.151-.127-.427-.127-.782.113-1.243.574-1.103 1.523-1.71 2.132-1.899.293-.091.579-.064.762.113.426.414.276 1.299-.016 2.044-.753 1.917-3.727 1.445-4.607 1.266-.962-.196-1.406-1.77-1.678-3.415-.461-2.798 2.349-6.047 4.488-7.858.791-.67 1.93-.679 2.792-.398 1.992.651.275 5.684-.782 7.819-.202.408-.663.639-1.098.768-.435.13-.946.07-1.375-.221-2.258-1.53-1.759-7.378-.664-9.986.193-.459.891-.425 1.255-.326.715.193.942 1.349 1.108 2.572.192 1.42-.178 2.587-.638 3.248a2.1 2.1 0 0 1-.7.654c-.263.15-.571.233-.865-.19-.837-1.208-.885-4.735-.91-8.791-.024-3.942 1.125-5.559 1.609-6.023.253-.243.702-.264.976-.105 1.231.713.733 2.506.618 3.445-.046.374-.347.478-.581.389-2.015-.764-2.331-4.42-2.103-5.083.106-.307.819-.092 1.449.545 2.902 2.93 2.724 4.957 2.595 5.862-.057.4-.683.479-1.13.529-2.022.225-4.4-2.155-5.56-3.579-.585-.718-.715-1.919-.634-3.061a.97.97 0 0 1 .61-.852c.248-.096.487-.003.829.414 1.955 2.383 2.335 7.146 2.381 11.695.023 2.284-3.404-7.245-3.702-9.684-.055-.449.019-.836.31-1.081.291-.244.846-.337 1.316-.296 1.887.166 2.909 3.434 3.41 5.661.19.842-.063 1.502-.389 1.898-.839 1.022-3.004-.177-4.872-1.31-1.373-.832-1.894-2.49-2.034-3.784-.093-.854.27-1.833.84-2.609.386-.525-2.391.438-9.332 2.369-3.732 1.038-7.817 2.437-10.341 3.205-3.318 1.01-4.848 1.085-6.016 1.021-.861-.047-1.427-.565-1.943-1.134-.288-.316-.577-.731-.213-.972 1.196-.794 3.982.353 7.823 2.711 2.425 1.489 5.44 4.141 7.445 5.837 2.873 2.432 4.125 4.168 5.006 6.072 1.03 2.227 1.005 4.466.904 5.978-.093 1.381-.974 2.454-2.059 3.31-1.234.973-2.741 1.066-3.854.925-.57-.072-1.102-.423-1.515-.853-.84-.875-1.181-2.585-1.524-5.441-.543-4.534.234-7.978 1.078-9.087.832-1.093 2.217-1.118 3.146-.928 2.826.579 3.737 5.384 4.078 7.838.083.596-.102 1.204-.453 1.594-.739.82-2.503.628-4.458.03-2.482-.76-4.034-3.569-5.201-5.748-.927-1.73-.498-3.875.142-5.816.54-1.638 2.716-2.057 4.823-2.324 2.584-.328 4.877.842 6.295 2.173 1.275 1.197 1.453 3.571 1.413 5.971-.017 1.056-.463 1.754-.97 2.369-1.031 1.248-3.309 1.758-6.067 1.538-2.686-.213-4.286-2.898-5.629-4.899-1.504-2.243-1.798-4.371-1.363-5.649.255-.752 1.303-1.359 2.358-1.741 2.173-.786 5.862.318 9.808 1.977 2.757 1.158 3.74 4.067 4.488 6.684.638 2.235-.132 4.223-1.143 5.747-.524.79-1.481 1.299-2.478 1.39s-2.109-.332-2.897-.937c-1.458-1.121-2.034-3.768-2.606-6.789-.27-1.42-.195-2.66 1.197-2.286 4.648 1.249 7.202 5.495 7.003 5.864-1.56 2.896-2.195-8.146-2.045-12.301.056-1.55.807-1.894 1.36-1.687 1.37.511 2.354 3.325 2.931 4.509.165.339-1.26-2.587-2.209-3.665-.948-1.078-1.717-.916-2.416-.705-.699.21-1.305.466-.795.598 2.091.539 4.514.445 5.673 1.206 1.082.711 1.457 2.959 2.05 6.254.788 4.378.495 7.362.329 8.077-.35 1.497-2.884 1.981-4.577 3.004-.532.32-.973 1.128-1.274 1.268-3.6 1.678-.553-10.817-1.005-11.392-.735-.937-3.133-.802-8.858-2.208-4.471-1.099-11.953-3.616-16.884-4.873-6.948-1.773-9.744-1.57-10.742-1.92-.954-.335-1.52-1.045-1.963-1.668-.554-.78-.698-3.009-.636-6.109.052-2.597.705-5.457 1.011-8.227.409-3.711 3.314-7.443 3.843-9.5.278-1.083.069-3.013.499-6.064s1.291-7.197 1.852-9.666c1.305-5.735 2.055-10.58 2.89-12.108 1.163-2.129 6.083-.182 10.144.448 3.627.564 6.005.262 7.018.277 2.848.043 5.66 3.874 6.018 4.325.43.54.209 1.89.07 3.303-.245 2.506-4.827 5.202-7.676 8.937-.623.817-1.17 1.289-4.382 3.639s-9.094 6.545-12.87 9.03c-5.119 3.369-7.132 3.978-7.588 4.066-.441.086.432-1.407 2.939-6.907 2.221-4.87 5.998-14.125 8.056-19.057 2.208-5.293 2.53-6.079 3.004-6.784.227-.338.576-.52 1.084-.599 2.5-.383 5.574 2.226 11.22 4.02 1.011.32 1.074.684 1.103 1.012.06.673-.262 1.573-.757 2.52-.227.433-.567.674-3.176 2.104s-7.518 4.018-10.469 5.692c-5.779 3.278-7.279 6.556-7.583 7.772-.671 2.683 6.237-3.498 9.368-7.31 2.649-3.225 3.263-8.316 3.545-11.21.04-.41-.198-.654.54-.297a49 49 0 0 1 4.997 2.813c1.246.801-2.288 3.082-5.444 6.857-.706.843-.937 1.318-.876 1.574.125.523 1.114.344 1.695.301 1.497-.111 2.763-1.693 3.47-2.963.666-1.195.91-2.456.695-2.911-1.593-3.362-7.372 4.255-8.734 5.51-.551.508-.736.834-1.001-.433-.85-4.07-.91-7.534-.91-7.047 0 .967 0 3.397.231 4.134s.694-.292.773-.636c.054-.235-2.834 2.549-6.575 6.164-2.194 2.122-3.656 4.428-5.677 8.051-2.722 4.882-3.728 8.824-3.998 10.142-.329 1.607-.573 2.632-1.46 3.605-1.467 1.609-5.273 1.237-7.082.697-1.602-.478-3.488-5.254-5.096-8.237-.446-.827-1.58-1.818-1.96-2.935-.719-2.112.177-6.342.135-11.213-.022-2.654-.761-4.034-1.292-5.247-.47-1.076-.592-5.482-.71-11.602-.043-2.28-.217-2.882-.404-3.298s-.425-.627-.766-.736c-1.428-.457-5.055.785-8.4 2.347-3.201 1.495-4.143 3.428-5.279 5.65-1.575 3.083-1.961 5.64-2.035 6.324-.272 2.53 2.69 5.382 4.278 9.269.91 2.228 2.852 3.895 5.141 6.09 3.44 3.3 6.051 5.177 6.353 5.131.81-.121-3.421-3.348-7.76-6.859-3.972-3.215-4.914-5.638-6.09-7.221-1.11-1.495-2.837-3.985-3.773-5.215-.38-.499 2.934-3.349 8.032-7.18 3.948-2.965 5.339-2.866 5.483-2.9.656-.161-4.252 3.315-9.722 7.578-2.19 1.708-3.3 2.346-3.842 2.834s-.51.77-.405 1.105c.605 1.949 1.222 4.108 1.153 5.155-.016.245-.302.392-.466.356s-.286-.283-.349-.663c-.062-.38-.062-.887.119-1.341.718-1.803 4.446-1.866 7.22-1.771 1.608.055 3.049 4.739 4.44 7.108.4.682.308-3.03-.456-9.248-.299-2.429.238-3.44.755-3.898s1.165-.346 1.9.476c4.123 4.62 3.427 9.585 3.387 10.938-.019.688-.28 1.362-1.295 1.658-1.016.296-2.84.187-4.15-.59-2.596-1.543-3.02-5.061-3.344-7.72-.307-2.509.096-4.21.818-5.141.44-.568 1.332-1.062 2.14-1.21.809-.149 1.585.131 2.368 1.091 3.733 4.576 2.945 9.217 2.815 11.877-.046.96-.569 1.069-1.185.809-1.572-.666-3.182-3.363-4.6-6.633-1.078-2.488-.773-5.363-.502-8.138.206-2.118 1.44-3.235 2.311-3.776.437-.271 1.035-.185 1.487-.049.848.254 1.612 1.472 2.445 3.025.752 1.404.798 3.617.728 5.861-.028.876-.373 1.192-.663 1.344-.289.151-.599.122-.919-.089-1.938-1.281-2.587-5.497-2.59-9.447 0-.683.495-.774.794-.832s.57-.058.858.228c1.635 1.625 1.508 6.561.948 9.145-.086.398-.795.418-1.158.359-.364-.059-.602-.349-.724-.648-.123-.3-.123-.599-.123-.907"/><path stroke="#d17da4" stroke-linecap="round" stroke-width="3.242" d="M107.188 135.885c-1.585-.041-6.446-1.444-11.605-4.424-1.49-.861-3.724-3.196-6.82-5.849-2.061-1.767-4.324-4.491-6.091-6.364-1.077-1.141-3.546-4.242-5.17-6.855-.9-1.451-1.547-3.093-2.195-4.775-.249-.644-.526-2.208-.672-4.126-.051-.676.36-.746.652-.782 1.1-.136 1.975.144 2.567-.006 1.459-.369.88-4.94 1.265-7.358.058-.367.402-.588.663-.775.504-.36 1.643-.401 2.908-.568 1.52-.2 1.199-3.07 2.37-4.673 2.185-2.995 3.859-4.155 4.982-4.686 1.998-.944 4.937-.163 5.68-.23 1.766-.162 2.852-2.888 4.186-3.866 1.027-.754 3.196-.498 4.871-.261 2.193.31 4.268 2.588 5.732 5.272 2.294 4.207 2.733 7.805 2.871 8.409.413 1.795 1.018 6.013 1.453 11.178.34 2.836.923 6.107 1.25 10.36.328 4.253.383 9.389.439 14.681m0 0c.331 0 .881 0 1.527-.158.607-.149.553-1.374.601-2.389.035-.743.973-4.67 2.097-10.866.702-3.872.694-6.745 1.071-9.237.254-1.684.556-5.896 1.356-12.287.952-7.61 2.691-9.235 4.197-10.776.493-.504 1.136-.57 1.78-.542 1.531.069 2.006 2.03 2.506 2.464.988.857 3.417-.807 5.44-1.452.946-.302 2.459.121 5.385.244 4.953.208 8.793-1.229 10.234-1.151 1.713.091 3.993 3.325 5.718 4.862.925.823 2.725.512 4.073.67 2.881.339 3.049 8.173 3.625 10.341.748 2.82-.229 4.205-.506 5.649-.229 1.19-.325 2.407-.59 3.639-.475 2.204-3.292 3.794-4.944 5.301-2.168 1.976-3.87 3.352-5.155 4.261-1.035.733-2.774 2.113-5.376 3.92s-5.996 4.024-9.052 5.839c-5.58 3.316-8.762 4.783-9.951 5.376-1.905.95-3.449 1.449-3.951 1.759a.72.72 0 0 0-.312.677c.059.464 1.026.956 2.316 1.474m-10.034 17.389c-2.425.753-6.006 5.138-8.77 8.249-1.028 1.157-2.125 1.964-6.369 4.674-1.181.754-1.67 1.231-2.473 1.876-1.365 1.094-4.538 4.078-8.668 7.498-2.26 1.871-3.57 2.081-4.682 2.226-2.009.262-3.766-.181-5.457-1.26-5.71-3.642-6.672-4.598-8.327-6.622-2.3-2.811-2.428-5.804-5.429-9.069-2.054-2.236-3.997-2.532-5.087-3.691-.829-.882-.146-2.363.384-3.367.15-.282.45-.497.6-.773.288-.528-.68-2.025-1.432-3.586-.539-1.12.026-2.908-.548-4.21-.975-2.212-1.37-4.575-1.256-5.42.16-1.183 2.855-1.58 4.414-1.928 2.042-.456 6.352.035 8.162.157.631.042 2.428-.067 7.066-.295 3.162-.155 7.977-.078 10.809-.145 5.26-.126 7.984-.439 10.902-.541 1.545-.054 3.219-.63 4.714-1.017.294-.076.561-.079.752-.195.19-.115.294-.347.305-.592a1 1 0 0 0-.234-.681c-.16-.183-.391-.289-.75-.399"/><path stroke="#d17da4" stroke-linecap="round" stroke-width="3.242" d="M118.626 155.505c0 .683-.319 2.636-1.905 5.708-1.197 2.319-2.324 3.538-3.716 5.126-1.328 1.515-2.678 2.591-4.064 4.652-1.131 1.682-2.885 4.814-3.894 6.585-1.198 2.103-1.491 3.322-1.779 5.788-.785 6.717.107 7.626.614 8.827 1.261 2.99 2.626 4.275 4.94 6.95.496.573.725.667.93.729s.406.062.665-.101c1.252-.785 2.105-2.313 3.572-2.894 2.9-1.148 4.94 5.577 6.075 6.316.892.58 3.365.488 5.668 1.126 1.353.374 2.466-.131 4.504-.177.877-.019 2.303.368 4.872.577 3.435.279 5.684.003 6.156-.168.915-.333 1.526-1.683 2.347-4.32.266-.853.323-1.917.396-3.991.181-5.145-.048-8.546-.231-9.02-.396-1.024-.646-2.943-1.099-4.563-.375-1.343-.825-2.367-1.074-2.854-.297-.579-1.663-3.678-3.608-7.969-1.008-2.225-1.275-3.188-2.188-5.42-1.879-4.587-3.217-8.212-3.726-9.178-.563-1.068-.62-1.974-.666-2.49-.019-.207.251-.28.607-.164 1.712.557 3.51 2.642 7.333 6.451 2.319 2.311 4.931 5.847 6.479 7.751 1.549 1.905 1.832 2.189 3.299 3.341 1.468 1.151 4.11 3.162 6.355 4.547s4.015 2.082 5.905 2.765c3.831 1.382 6.293 2.025 7.058 2.062 2.336.113 5.521-1.131 5.912-1.442 1.827-1.456.405-5.521.581-5.941.502-1.197 2.737-.824 3.868-1.818 1.352-1.188 2.521-2.849 3.894-3.427.326-.138.728-.402 1.029-.647 2.048-1.669.552-7.171-.347-9.073-.405-.856-1.027-1.323-1.313-1.775-.963-1.524-.17-4.555 1.833-9.725.622-1.604.753-2.363.803-2.93.112-1.266-2.824-4.016-4.668-5.973-.703-.745-1.06-1.788-1.235-4.498-.1-1.557-1.745-2.167-2.403-3.181-.943-1.458-2.294-1.886-3.71-2.312-2.12-.638-6.063.119-9.717.953-4.523 1.034-7.204 2.298-8.195 2.569-3.099.848-4.28 1.34-5.775 1.582-2.166.352-4.745.681-6.017 1-2.314.58-4.394.76-5.888.951-1.406.18-2.714.446-4.177.847-.991.375-1.821.709-2.915.899-.443.026-1.109.043-1.796.108"/><path stroke="#d17da4" stroke-linecap="round" stroke-width="3.242" d="M118.431 146.875c-1.794-.022-5.539-.154-6.007-.355-.391-.168-.569-.597-.646-1.107-.046-.301.097-.699.284-.996.359-.567 1.049-.766 1.833-.903 1.145-.201 2.088.058 2.489.294.185.109.268.289.329.458.06.168.08.345-.17.558-.685.58-1.771.73-2.602.707-.664-.018-1.186-.564-1.632-1.085-.332-.386-.434-.813-.496-1.254-.07-.499.182-1.053.593-1.502.781-.855 2.186-.634 2.478-.877.88-.736.241-2.609.406-3.878.089-.69 1.321-.353 1.975-.086 1.954.796 2.277 2.607 2.645 4.147.241 1.008-.027 1.864-.204 2.298-.172.424-.726.724-1.066 1.016-.667.574 3.636.977 5.103 1.284.75.156 1.079-.74 1.457-.7.788.083 1.425 1.609 1.798 2.769.097.299.065.694-.005.972-.244.967-1.79 1.31-3.851 1.559-2.075.251-3.574.006-4.36-.098-1.54-.202-3.175-.376-4.214-.526-.646-.094-.587-1.53-.594-2.912-.005-1.055.554-2.29 1.418-3.647.667-1.049 1.581-1.359 2.38-1.541 2.058-.47 2.723.173 2.981.229 1.333.285-.911-2.119-.822-2.639.035-.204.343-.176.62-.087 1.856.595 3.386 2.501 4.285 2.835.248.042.476.042.593.131.118.09.118.268.256.686m-19.44 4.546h-1.663c-1.612 0-4.81 0-8.192.043m10.462 5.027c-.13 0-1.167 0-2.71.106-1.478.102-1.944 2.342-3.178 2.956-.724.256-2.016.691-2.913 1.054-.898.363-1.36.639-2.146.985m27.349 1.526c-.236.445-.927 1.911-1.853 4.226-.398.997-.103 2.138.128 3.095-.112 1.132-.734 2.074-1.413 2.767-.325.323-.61.59-.903.864m7.031-12.105c.084.424.498 1.821 1.193 3.288.315.946.379 2.692 1.065 4.62.148.599.165 1.467.183 2.361m6.268-18.34c.754 0 1.973.081 2.833.35.907.283.547 2.068 1.213 2.536.504.25 1.344.527 2.432.659s2.399.112 3.749.091m-9.732-9.481c1.332 0 3.879-.327 4.692-1.108 1.06-.397 3.189.324 5.356.892.378.04.616.04.861.04m-23.436-14.677c.233-.842.812-2.517 1.374-4.077 1.007-2.132 1.821-4.423 1.9-4.756.063-.167.173-.328.286-.494m.25 10.494c.238-.276 1.286-.972 2.336-1.863.66-.56 2.101-1.65 3.689-2.967.718-1.059 2.212-3.144 3.475-4.065.31-.075.712-.094 1.126-.113m-25.82 8.195c0-.051 0-2.697.06-6.901.03-2.062.305-2.726.243-3.086-.16-.926-1.681-1.238-2.588-1.95a1.18 1.18 0 0 1-.309-.67c-.043-.279-.043-.646-.043-1.023m-2.14 12.763c-.246-.286-1.651-1.926-2.537-3.767-.956-1.984-.731-3.238-.871-4.39a109 109 0 0 1-1.724-1.515c-.209-.15-.372-.179-.941-.252"/><path stroke="#fff" stroke-linecap="round" stroke-opacity=".4" stroke-width="8.183" d="M20.634 184.719c-2.085-3.047-.243 7.598.663 13.227.64 3.98 1.08 8.008 2.258 13.045.81 3.458 2.393 6.734 5.137 9.341 3.8 3.609 8.628 3.575 9.325 3.523 2.725-.204-5.196-3.728-8.967-4.52-1.446-.304-3.703-.13-4.353.131-2.395.961 4.748 2.254 20.328 6.711 5.947 1.702 12.135 1.712 19.353 2.443 4.716.477 8.22 1.698 11.022 2.83 2.53 1.021 5.603 2.122 8.456 2.813 3.311.801 7.24 1.87 10.508 2.272 7.048.867 20.934.089 28.288-1.004 7.544-1.122 11.654-.521 21.681-.607 3.513-.03 10.595.431 20.959.183 11.767-.281 15.834-2.042 19.081-2.593 3.759-.639 8.649-2.633 11.851-4.423 2.72-1.521 5.949-2.877 8.381-4.057 3.017-1.464 6.408-3.348 8.878-4.373 2.355-.977 3.401-3.406 4.472-5.785 1.374-3.048 2.549-6.254 3.218-7.245 1.132-1.676-1.131 4.547-1.751 5.619-2.874 4.973 5.919-19.015 8.014-27.095 1.012-3.904 1.463-7.493 2.11-12.062.2-1.413.067-3.282 1.135-9.877s3.205-17.876 4.61-24.659c2.357-11.387 3.119-13.908 3.547-16.569.598-3.716.884-13.212 1.998-23.362.527-4.799 1.632-12.525 2.114-17.795.618-6.759-1.965-10.136-4.133-12.513-2.647-2.903-4.912-4.19-7.423-5.139-2.744-1.036-5.268-1.94-8.149-2.842-2.389-.749-3.13-3.987-4.084-6.476-1.129-2.944-1.866-7.317-2.036-11.317-.028-.667.732-.985 1.324-1.219.591-.234 1.255-.334 1.791-.12.537.215.926.748 1.024 1.34.098.591-.108 1.226-.132 1.233-2.049.532 3.046-3.877 5.053-5.2 2.23-1.468.622-7.215-1.235-12.206-1.042-2.798-2.279-4.908-3.34-7.72-.952-2.524-2.861-4.296-5.117-5.794-2.581-1.714-5.291-2.342-10.672-2.51-3.63-.115-6.257-1.494-8.779-2.076-1.578-.364-4.81-.52-12.163-.632-5.022-.076-12.666-.111-20.677-.112-16.158-.003-25.6.175-28.854.303-5.533.219-9.771.31-16.289.5-5.713.166-16.317.064-22.129.012-8.286-.076-13.066-.4-16.58-.828-2.732-.333-5.68-.921-9.847-1.21-7.36-.509-11.794.262-15.5.684-4.832.55-9.847.963-21.703 1.113-4.42.057-6.672 1.729-9.023 3.152-2.359 1.427-4.336 1.817-5.17 2.935-2.612 3.498.74 7.013 1.355 9.445.638 2.526.634 8.785-.18 12.832-.116.579-2.689 1.994-.922 1.298 1.998-.788 2.832 3.647 4.069 8.272 2.652 9.924-1.472 13.542-3.24 15.546-.47.53-1.187.825-1.344.718-1.687-1.156 1.812-3.419 1.693-4.05-.443-2.357-4.16 3.69-7.543 5.661-2.395 1.395-3.654 4.232-5.036 6.837C6.45 73.592 5.87 77.246 5.527 84.14c-.614 12.336.25 23.548 1.025 28.78.841 5.677 1.362 9.821 1.982 17.965.79 10.373 2.573 19.214 3.926 24.203 1.399 5.158 1.357 8.986 2.477 12.569 1.561 4.988 1.583 7.718 2.18 10.274s2.137 4.871 3.85 8.769a35 35 0 0 1 1.04 3.172c.306 1.098.585 2.271.872 3.811"/><path stroke="#fff" stroke-linecap="round" stroke-opacity=".4" stroke-width="24.549" d="M78.014 149.589c0 .244 0 .487.297.689s.892.356 1.383.05c1.17-.727 1.323-4.149 1.283-8.138-.029-2.802-1.681-4.673-3.502-6.067-3.433-2.628-7.729-1.553-9.773-.721-6.227 2.534-7.924 15.877-9.384 25.546-.367 2.428-.162 5.009.32 6.485.481 1.476 1.445 1.791 2.247 1.602.8-.19 1.41-.895 1.757-1.566.347-.672.412-1.288.127-1.985-.654-1.595-2.495-2.542-4.753-3.004-3.032-.62-5.625.289-6.988 1.282-2.862 2.088-3.96 6.451-5.39 15.486-1.179 7.44-3.566 10.292-6.522 13.925-2.337 2.874-2.804 8.29-3.588 11.734-.144.634-.485 1.188-.208 1.598 1.865 2.768 7.634 3.283 10.889 4.628 1.494.617 3.156 1.072 9.285 2.545 5.304 1.275 15.16 3.19 21.059 4.529 11.725 2.663 18.088 4.294 23.108 4.882 7.698.903 16.875 1.894 26.074 2.912 9.324 1.032 14.539-1.094 18.189-1.344 7.246-.496 9.718-.941 12.864-1.454 8.707-1.421 18.358-1.12 24.974-3.395 8.403-2.89 15.023-3.822 20.221-6.635 3.336-1.806 5.908-5.606 7.906-10.438 1.37-3.316 1.743-9.011 2.72-14.992.642-3.935 2.056-9.754 3.496-19.755.799-5.552 1.489-12.109 1.908-17.324.42-5.215.485-8.899 1.166-15.061s1.976-14.691 3.026-20.457c2.187-12.005 4.871-17.145 6.314-23.596 1.179-5.272.322-10.264.563-12.08.119-.892 1.036 9.156 1.251 20.797.095 5.171-1.279 11.358-3.494 20.424-1.507 6.168-3.128 8.867-3.586 8.918-1.917.211.869-10.11 2.421-22.442 1.257-9.987-.335-17.663-2.025-23.287-2.254-7.5-3.264-9.754-3.709-10.831-.953-2.307-5.505-1.872-10.096-4.741-2.463-1.539-3.274-3.808-3.994-5.26-3.988-8.044-1.276-23.897-.213-27.806 1.061-3.906 8.429-1.746 8.852-2.987 1.112-3.26-2.461-6.061-3.145-7.156-1.373-2.202-5.242-1.38-6.707-2.695-.709-.637 2.069-1.383 2.993-1.819 3.511-1.657-12.149.233-23.047 1.356-15.058 1.552-24.605.267-26.138.032-8.937-1.373-22.461.24-27.966 2.147-7.836 2.714-15.359 3.941-21.599 4.423-9.95.77-20.98-.92-28.737-2.6-3.44-.746-6.75-1.167-11.113-1.877-2.368-.385 6.873-2.703 24.955-6.018 14.082-2.582 23.359-.977 28.226-.475 3.271.337 5.167.236 6.393.38.607.071 1.176.17-6.272 1.311-7.449 1.14-22.933 3.328-32.512 4.454-12.744 1.499-16.815 1.01-18.217.719-5.874-1.224-16.951-2.902-21.147-3.138-1.782-.1 10.996-2.707 18.36-3.051.491-.023-11.789.955-28.055 1.637-6.317.265-7.458.915-8.345 1.59-2.912 2.211 1.12 14.736 4.04 24.168 2.152 6.95 1.145 11.366-.085 14.412-1.101 2.73-4.185 5.027-7.866 9.06-2.716 2.976-4.836 5.501-6.964 7.111-1.884 1.425-1.45 12.149-1.304 27.051.085 8.649 1.442 14.981 2.849 23.072 1.705 9.81 2.329 16.178 2.772 20.593.997 9.937.75 17.955 1.53 21.347 1.87 8.145 5.01 11.702 8.498 14.781 1.155 1.021 3.275 1.709 12.446 5.04s25.508 9.041 36.327 12.341 15.622 4.017 25.498 4.267c9.875.25 24.675.01 35.727-.609 17.95-1.006 25.582-2.633 27.58-2.81 10.438-.93 20.335-6.427 23.444-9.427 1.988-1.918 2.761-6.023 3.607-17.536.667-9.068.575-24.753 1.698-38.547 1.124-13.795 3.148-25.24 4.191-31.51 1.164-7 .714-8.85-.39-11.379-3.498-8.008-14.117-14.711-18.408-17.944-3.048-2.297-4.345-9.177-4.785-21.144-.177-4.837 1.918-10.128 2.964-14.462.473-1.958-10.998-1.812-27.692-.588-13.301.975-20.901 4.496-25.023 4.856-7.17.626-11.415-.366-25.157-2.135-11.968-1.542-33.95-5.31-45.645-7.163-12.394-1.965-13.842-2.088-15.12-1.948-.617.068-.973.868-1.182 1.493-.398 1.192.938 10.134 2.716 26.622.884 8.204.712 16.171.391 21.347-.458 7.4-3.756 13.097-6.837 18.744-1.457 2.67-1.616 6.829-1.784 11.641-.083 2.383-2.895-9.233-3.465-24.639-.114-3.066.121-3.731.25-3.48.67 1.3.416 4.317-.772 13.455-.976 7.51-3.563 20.728-4.836 31.223s-1.371 17.835-1.29 22.378c.157 8.617 3.517 13.327 5.99 16.065 2.332 2.582 7.424 1.502 11.392.711 2.235-.446 3.714-3.627 5.508-7.36 2.371-4.934 2.919-15.12 3.337-26.266.404-10.805-7.421-17.545-9.113-18.552-.765-.455-1.814.549-2.62 2.918-.805 2.369-1.455 6.417-1.81 16.282-.354 9.865-.392 25.425.096 35.421.957 19.602 5.623 23.2 7.446 24.937.741.707 1.559.496 2.32-.545 2.02-2.765 2.763-7.115 3.581-17.607.661-8.484.887-23.441 1.067-31.439s.07-8.599-.013-3.394c-.082 5.205-.132 16.234.555 25.332.687 9.099 2.113 15.933 3.727 21.685 2.905 10.36 6.136 15.945 7.94 17.616 5.078 4.702 8.701-18.938 11.132-21.139 2.433-2.204 8.252 1.965 11.113 4.71.602.578.847 1.307.32 1.9-1.49 1.68-6.543 1.557-13.523.421-8.663-1.41-14.073-5.766-16.237-7.463-.984-.772-1.546-1.59-.27-2.294 4.07-2.244 11.734-1.967 23.05-.945 7.352.664 17.807 3.066 22.052 4.144 2.159.548-6.707-.196-17.616-2.92-12.972-3.239-19.695-10.35-22.117-14.947-.436-.828.095-1.746 1.358-2.651 3.33-2.387 10.53-3.029 20.411-2.851 5.455.099 11.768 1.124 17.056 2.389 9.544 2.283 17.315 6.804 23.835 10.825 2.863 1.766 4.339 3.706 5.242 5.124.904 1.419 1.066 2.443.107 3.374-2.515 2.441-8.935 2.567-16.266 2.055-7.067-.493-11.889-3.421-15.489-5.811-4.958-3.289-8.398-9.028-9.713-15.111-.674-3.118 1.047-6.586 2.34-8.811 1.291-2.226 2.718-3.178 8.725-4.474 6.007-1.295 16.552-2.906 24.841-3.426 8.289-.519 14.003.102 19.187 1.447 9.916 2.573 17.616 7.913 23.597 13.242 5.781 5.151 6.421 12.13 5.714 16.34-.626 3.724-7.064 5.827-14.525 8.003-8.066 2.353-16.183-.112-22.572-2.796-6.161-2.589-9.571-6.779-11.181-9.678-.747-1.343-.677-2.749.425-3.788s3.408-1.748 9.922-2.244c6.514-.495 17.168-.755 25.458-.154 14.011 1.016 22.02 5.257 25.968 8.722 1.804 1.585 2.364 3.663 2.502 5.168s-.379 2.59-2.159 3.611-4.809 1.945-10.269 2.618c-5.461.673-13.262 1.067-18.951.8-9.102-.429-14.65-3.695-18.283-6.846-1.654-1.435-2.129-3.342-2.322-5.437-.192-2.095.115-4.525 1.701-6.729 3.533-4.91 9.831-6.719 14.942-7.823 5.376-1.161 10.003-.851 12.92.234 3.323 1.236 2.751 6.92 2.18 10.662-.496 3.248-3.521 5.592-5.767 7.581-.933.827-1.843.77-2.375.188-1.331-1.456-.998-6.258-.134-13.169 1.041-8.33 7.254-16.205 12.722-22.813 4.1-4.955 10.144-6.856 15.949-8.2 2.677-.62 4.996-.069 6.8.862 3.514 1.811 4.718 5.36 5.169 7.634.197.996-.021 1.727-.774 2.211s-2.123.711-4.057-5.649c-1.933-6.359-4.388-19.313-5.653-27.246-1.265-7.934-1.265-10.456-1.613-4.915-.347 5.541-1.043 19.221-2.378 31.236-1.334 12.014-3.287 21.949-4.808 28.042-1.52 6.094-2.55 8.046-3.93 5.179s-3.08-10.612-3.888-20.231-.673-20.878-.22-28.631 1.221-11.659 1.758-14.031.819-3.091 1.005 3.666.268 21.013.161 29.509-.407 10.801-.841 12.92-.995 3.983-1.932-3.321c-.936-7.303-2.231-23.83-2.624-35.53-.392-11.701.157-18.074 1.161-23.02s2.446-8.271 4.23-10.497 3.865-3.25 5.436-3.108c2.953.269 4.35 6.807 5.565 15.952 1.524 11.475-.187 21.334-2.575 27.143-1.128 2.743-3.416 4.424-4.826 5.372s-2.214.948-4.308.077c-5.585-2.324-12.184-8.925-17.558-17.532-4.331-6.934-3.832-15.41-3.184-23.709.654-8.372 5.054-14.283 9.336-18.01 2.309-2.012 5.694-3.244 8.659-3.611 2.965-.368 5.612.426 8.136 2.594 5.668 4.867 8.326 13.986 9.972 23.48.828 4.778.559 9.631-.654 14.548-2.502 10.138-8.191 16.954-12.434 20.909-4.025 3.751-9.449 4.9-14.31 4.218-4.908-.689-6.673-8.702-8.195-16.735-.84-4.437-.705-9.781-.551-15.289s.608-11.063 2.561-17.706c4.286-14.576 9.705-22.603 11.151-23.381.615-.332 1.243.111 1.826 1.943s1.167 5.205 1.553 10.8c.387 5.593.559 13.307.132 19.726-.757 11.376-4.285 19.867-8.002 26.5-3.417 6.097-7.814 9.043-11.167 9.938-1.697.453-3.57-.042-5.263-1.588-3.997-3.649-5.773-11.438-7.476-22.225-1.039-6.577-.968-15.586-.588-21.613.563-8.947 2.878-12.45 4.087-13.911.735-.889 2.23-1.582 3.728-1.95 1.498-.37 3.085-.267 4.984.873 4.494 2.697 8.537 9.393 12.702 17.555 4.382 8.586 5.102 16.709 5.031 23.266-.088 8.092-4.691 16.072-11.317 21.59-4.365 3.636-9.339 3.203-13.871 2.868-5.436-.402-10.158-5.548-13.952-12.098-2.014-3.476-3.06-7.862-3.88-15.108s-1.091-17.373-.339-24.936c1.237-12.45 5.974-19.58 9.378-24.285 3.24-4.479 7.913-6.617 12.818-7.052 2.739-.243 5.994 1.271 8.168 2.72 7.755 5.169 8.018 16.847 8.899 23.519.187 1.422.095 2.585-.151 3.44-.245.856-.736 1.377-1.342 1.68-.607.304-1.316.375-1.986.064-.669-.312-1.279-1.007-1.683-2.138-3.703-10.368-2.274-25.857-4.839-27.782-1.44-1.082-3.878-.848-7.851-.391-5.369.617-13.241 6.132-22.891 14.142-4.811 3.993-8.765 8.627-11.652 12.925-5.252 7.82-5.986 15.757-5.651 21.988.58 10.791 8.581 19.229 12.816 23.082.863.786 2.222 1.01 3.108 1.105.887.096 1.431-.188 1.947-1.237 1.333-2.709 1.732-10.527 1.865-21.306.11-8.928-3.484-17.745-7.894-26.014-3.202-6.006-8.231-8.495-12.268-9.753-1.624-.507-2.476-.428-4.384.956-5.178 3.757-8.915 10.95-10.498 19.46-.84 4.52-.725 9.618-.377 14.872.704 10.597 3.546 18.78 6.765 24.115 3.141 5.206 7.368 8.062 10.933 9.413a7.23 7.23 0 0 0 5.459-.162c3.387-1.536 5.18-7.679 6.732-17.366.948-5.918.707-14.065.194-19.808-.803-9.006-5.193-14.56-10.093-18.538-4.47-3.63-9.515-2.695-12.819-1.816-5.188 1.38-10.176 9.028-14.99 20.513-2.786 6.646-3.376 15.989-3.996 22.702-.992 10.741 1.208 18.451 4.542 24.641 1.52 2.82 3.515 4.5 5.266 5.612s3.41 1.481 5.043 1.28c1.634-.2 3.193-.98 4.539-3.158 1.347-2.179 2.433-5.731 3.278-12.983s1.416-18.097 1.073-26.263-1.619-13.327-3.635-18.279c-4.015-9.863-9.623-16.019-14.212-19.255-4.87-3.436-11.326-3.964-16.89-3.104-5.318.821-7.7 8.902-9.898 18.87-1.38 6.25-1.108 15.309-.303 22.017 1.336 11.138 6.776 17.604 11.014 21.871a15.9 15.9 0 0 0 5.699 3.698c1.603.596 2.753.509 3.638-.6 2.217-2.779 2.438-11.997 2.696-23.612.187-8.407-3.215-15.201-6.963-21.022-2.831-4.398-7.498-5.722-11.665-6.495-2.042-.379-4.01-.263-6.019.732-4.484 2.222-6.54 7.34-7.283 12.131-.781 5.037-.201 10.018 1.017 14.335.61 2.163 2.415 3.835 3.304 3.344 3.057-1.689.604-11.402-.6-24.866-.74-8.251-.59-19.468-.544-26.12.046-6.651.278-8.42.723-9.112s1.096-.256 1.82.52c.724.774 1.503 1.874 2.269 2.591s1.496 1.016 10.183 1.454c8.688.438 25.31 1.006 34.238 1.331 9.66.352 11.174.512 11.992 1.183 1.467 1.204-3.075 4.553-14.644 13.896-9.751 7.874-27.636 21.792-37.53 29.393-13.816 10.614-20.238 11.99-23.613 13.427-.837.356-1.703 1.127-2.342 1.8-.638.672-.964 1.339-.035 2.636s3.121 3.205 18.313 11.267 43.315 22.221 58.55 30.078c16.877 8.702 18.985 10.852 20.627 12.271 3.975 3.435 14.925 3.35 22.432 2.651 5.453-.508 7.784-8.59 10.864-19.989.592-7.394.037-10.096-.735-11.977-.371-.821-.703-1.372-1.188-2.539"/><path stroke="#000" stroke-linecap="round" stroke-width="4.091" d="M17.058 8.924c-.238.548-1.3 1.816-1.78 3.3-.288.893.08 2.02.382 3.108.277 1.002 1.017 1.717 2.112 2.424 5.23 3.379 12.612 3.02 15.85 3.39 1.29.146 3.164.144 6.942.709s9.406 1.645 16.882 2.401c7.476.757 16.629 1.157 22.33 1.481s7.67.56 11.018.774c3.348.215 8.014.401 12.16.722 7.645.593 11.792 1.236 13.246 1.256 2.052.027 5.247-.11 15.529-.351 8.292-.194 22.833.123 31.983-.009s12.471-.553 15.39-.77c2.92-.218 5.338-.218 9.232-.742 9.241-1.244 15.274-2.862 16.456-3.24 2.619-.836 9.546-3.12 14.491-4.762 1.208-.4 1.93-1.186 2.378-2.273 1.089-2.64-.402-4.677-1.529-6.123-1.155-1.48-5.213-1.581-7.857-2.304-.886-.243-1.755-1.029-5.631-1.537-8.94-1.172-15.3-1.26-16.11-1.356-1.787-.212-3.216-.616-16.067-.97-12.174-.337-35.832-.68-48.251-.87-12.42-.192-12.887-.143-19.733-.225A3417 3417 0 0 1 79.39 2.5c-7.499-.167-8.67-.423-12.272-.451-7.995-.062-14.375.64-17.075 1.056-6.041.93-9.6 1.423-15.013 2.149-2.534.34-4.385.696-8.957 1.609-2.22.442-3.8.746-5.33 1.066a16 16 0 0 0-3.311 1.475c-.302.231-.552.536-.809.942"/><path stroke="#000" stroke-linecap="round" stroke-width="4.091" d="M62.987 20.732c-.059 0-4.671 0-12.06-.02-5.471-.015-8.512-1.013-10.65-1.658-1.757-.53-3.538-.985-5.177-1.785-1.111-.544-1.773-1.434-1.91-2.21-.167-.936.927-1.72 1.889-2.236 1.85-.992 9.593-1.52 15.225-2.296 1.984-.273 5.346-.867 9.897-1.693C64.789 8 68.899 7.65 72.01 7.068c2.511-.469 5.8-.42 8.99-.273 1.088.05 1.037.585.952 1.066-.354 1.992-1.474 3.432-2.842 4.753-1.376 1.33-3.1 2.463-6.987 4.473-2.245 1.16-4.491 1.928-6.271 2.725-2.242 1.005-4.535 1.592-6.187 1.918-2.064.409-3.79-.786-4.838-1.725-1.227-1.1 2.309-2.648 4.282-3.865 1.717-1.059 3.666-3.156 5.469-4.26 2.109-1.293 4.506-2.043 6.277-2.616 2.039-.66 4.236-.802 5.783-1.248.4-.114.806-.21 1.258-.274s.938-.096 1.439-.127m-7.811 16.381c1.252-.154 3.058-.696 4.936-1.75 2.219-1.247 4.984-2.362 6.46-2.916.826-.32 1.785-.835 2.725-1.467.425-.288.742-.513 1.343-.837m-4.071 9.004c1.005-.125 4.305-1.183 7.453-2.513 2.45-1.515 3.64-2.234 4.352-2.661.359-.2.712-.362 1.445-.722m1.626 5.126c.316 0 .878-.047 2.281-.43a33 33 0 0 0 3.952-1.645c1.35-.682 2.403-1.4 3.852-2.24m3.02 5.299c.257-.143 1.121-.706 2.682-1.642.829-.447 1.732-.836 2.564-1.24.832-.402 1.566-.807 3.28-1.81m37.92 5.488c1.203-.35 3.693-1.298 6.296-2.09 2.755-.839 4.783-2.567 7.397-3.702 1.418-.616 2.875-.777 3.879-.327 1.271.57.168 2.626-.288 3.363-1.078 1.742-3.048 1.938-7.018 2.496-1.037.145-1.818.098-1.955 0a180 180 0 0 1 5.462-2.696c.488-.26.919-.555 1.849-1.343"/><path stroke="#000" stroke-linecap="round" stroke-width="4.091" d="M13.919 14.974c.192.934 1.698 5.95 2.38 11.146.707 5.38-.78 7.417-1.58 9.087-.751 1.572-1.573 2.593-1.6 3.413-.106 3.238 6.41 4.949 10.87 6.23 1.493.43 2.819.496 8.07 1.158 4.528.571 12.788 1.987 17.75 2.669s6.364.682 11.64 1.324 14.384 1.926 19.548 2.641 6.108.821 9.3 1.026c3.194.205 8.607.504 12.705.845 10.109.843 11.835 1.146 16.942 1.494 4.706.321 13.709.875 21.35 1.028s13.648-.126 17.537-.462c5.507-.474 7.607-1.112 8.607-1.185 1.058-.077 4.461-.715 10.95-1.24 7.833-.633 12.987-.367 14.33-.74 1.013-.283 5.902-1.175 13.151-2.24 6.668-.979 12.683-4.336 15.403-5.283 2.997-1.043 6.385-4.054 8.814-5.582a2.9 2.9 0 0 0 .923-.894c1.087-1.732-.275-5.17-.569-7.982-.422-4.015-3.225-8.897-3.856-11.023-.532-1.79-1.177-3.447-1.514-5.073a6.4 6.4 0 0 0-1.138-2.157c-.305-.34-.682-.686-1.35-1.326"/><path stroke="#000" stroke-linecap="round" stroke-width="4.091" d="M135.217 44.432c1.685 0 6.943-.08 12.155-.586 1.065-.103 1.814-.265 5.782-.35 3.968-.083 11.128-.126 15.415-.217 5.489-.117 7.181-.373 8.166-.455 1.121-.094 7.575-.927 16.781-1.744 3.896-.345 7.679-.917 13.715-2.033 8.557-1.582 10.997-4.414 14.879-6.27 3.2-1.68 4.646-2.924 5.639-3.893.436-.406.732-.637 1.408-1.153"/><path stroke="#000" stroke-linecap="round" stroke-width="4.091" d="M163.99 30.035c.712.47 3.328 3.314 4.845 5.815 1.508 2.473 1.957 3.755 2.07 4.62.038.49.038 1.081.038 1.691m6.231-13.627c.347.86 1.46 2.988 2.746 5.765.683 2.2.841 3.57.861 4.69.019.698.058 1.66.098 2.652m8.258-14.154c.285.155 1.766 1.45 3.642 3.738.647 1.174 1.041 2.67 1.343 4.587.117 1.042.159 2.226.203 3.446m5.984-12.862c.333.078 1.016.627 1.916 1.8.747.976 1.193 2.171 1.616 3.823.231 1.158.496 2.967.638 4.06s.153 1.413.164 1.744m-56.13 6.996c0 .035.03 1.931.095 4.865.037 1.677.321 2.504.373 3.043.144.613.204 1.316.193 2.025-.011.28-.033.4-.056.613m12.236-.406c.123-.248.686-1.184 1.133-2.973.405-1.626-.206-3.69-.568-5.297-.135-.6-.17-.76-.214-.902a4 4 0 0 0-.151-.382m28.909-1.836c0 .441-.053 1.775-.087 2.56-.036 1.192-.008 2.916.346 4.226.09.285.144.393.319.808m-26.683 5.686c.48.03 1.238.206 1.94.626 1.482.887 2.024 2.554 2.384 3.324.447.959 1.034 2.315 1.641 3.481.236.453.307.63.346.163.132-1.577.132-3.331.312-4.348.193-1.085 1.11-2.09 2.658-3.77.242-.262.026-.352-.144-.38-.925-.152-2.429.572-3.188.98a2.75 2.75 0 0 0-.871.728c-.139.218.955-.612 2.487-1.19 2.074-.783 4.109-1.119 5.356-1.311.496-.077.72-.066.882-.017.593.175.963 1.051 1.35 1.74.485.866.389 1.657.556 2.82a4.6 4.6 0 0 1-.054 1.674c-.197.871-2.402 2.365-4.173 3.586-.331.228 1.896-.28 3.373-.449a33 33 0 0 1 3.817-.197c.926.007 1.32.058 3.035.101 1.714.043 4.736.077 6.367.088 1.63.01 1.776-.001 1.915-.024.567-.091-3.769-.462-4.804-.638a.5.5 0 0 1-.309-.172c-.173-.198-.202-2.047-.158-4.98.056-1.247.181-2.006.251-2.488s.082-.664.095-.85M16.58 30.96c.068 0 1.219.523 4.425 1.854 2.07.86 5.125 1.884 6.77 2.448s1.806.582 4.687 1.182c2.88.6 8.473 1.781 17.99 2.657 9.518.876 22.79 1.411 30.632 1.553s9.855-.124 11.53-.402c4.451-.867 5.145-.905 7.067-1.045.423-.04.581-.07.897-.294"/><path stroke="#000" stroke-linecap="round" stroke-width="4.091" d="M74.274 37.911c0-1.502.07-4.136.334-6.793.306-1.61.567-2.589.711-2.895.075-.147.152-.276.417-.719M63.12 38.463c-.035-.23-.32-1.264-.552-2.258-.159-.68-.156-2.01.018-3.93.327-3.61 1.632-4.761 2.112-5.795a2.6 2.6 0 0 1 .27-.465c.102-.136.23-.265.362-.398m4.556 15.165c0 .618.215 3.82.3 7.269-.074.971-.218 1.573-.4 2.025-.088.208-.172.373-.298.697m-38.364 7.164c.446.079 1.965.527 6.994 1.432 4.25.765 12.04 1.554 16.896 2.047s6.566.513 7.552.513c1.826 0 2.895-.35 3.311-.47.377-.11.33-1.752.495-4.29.165-1.295.493-2.6.729-3.568.235-.969.367-1.56.628-2.554"/><path stroke="#000" stroke-linecap="round" stroke-width="4.091" d="M56.854 61.242c0-.104 0-2.08.074-5.343.224-2.038.558-3.338.86-4.292.12-.374.176-.524.384-.949m-9.904 9.398c0-.046-.052-.4-.192-1.174-.18-.997-.368-3.848-.395-7.471.011-1.333.073-1.639.132-1.869.058-.23.111-.377.327-.78m36.514 16.285c1.358 0 5.413.412 6.79.634.192.011.387.032.892.043.504.01 1.313.01 2.474-.156"/><path stroke="#000" stroke-linecap="round" stroke-width="4.091" d="M18.745 45.877c0 .613.181 2.795.194 5.855.008 1.95-1.758 3.461-5.78 6.249C6.705 62.452 3.993 67.27 2.59 70.99c-.378 1.002-.43 2.015-.506 5.062s-.076 8.129.316 16.623a609 609 0 0 0 2.398 32.26c1.224 12.013 2.865 23.929 3.793 30.613s1.094 7.775 1.888 11.296c.795 3.522 2.214 9.441 3.123 14.25 1.565 8.279 1.677 13.059 2.142 16.096.73 4.771 2.855 12.034 4.187 19.198.594 3.193.934 4.15 1.125 4.972.2.86 1.38 1.81 4.092 3.138 4.108 2.013 10.79 4.011 18.358 5.771 6.128 1.425 9.995 1.483 11.784 1.534 1.363.039 5.908.627 15.845 2.332 6.022 1.033 13.794 3.619 18.895 4.796 9.64 2.225 11.706 1.006 17.19.88 4.412-.102 12.129-.38 16.671-.612 5.683-.291 8.863-.649 17.759-.646 6.873.002 18.533.007 26.557-.366 12.098-.563 16.885-1.946 18.266-2.124 4.307-.556 8.85-2.96 14.58-5.537 4.927-2.215 8.589-2.996 14.419-5.858 3.612-1.773 7.116-5.454 8.42-8.723.684-1.715 1.414-5.135 2.67-9.742 1.147-4.208 2.692-8.727 3.841-13.694 1.045-4.515 1.556-10.292 2.712-15.809.432-2.063.478-2.643 1.389-7.974.912-5.331 2.669-15.4 3.574-21.233s.905-7.126 1.299-10.84c1.041-9.825 2.154-16.732 2.536-18.74.258-1.359.493-3.435 1.004-7.718.51-4.283 1.248-10.717 1.653-15.02.59-6.268.794-10.034 1.254-14.196 1.028-9.28-.583-11.37-1.971-14.238-.825-1.702-2.911-3.642-5.525-5.256-3.439-2.124-6.627-2.033-9.702-3.402-4.298-1.915-5.769-4.87-6.543-6.61-.128-.449-.163-.902-.235-1.328s-.181-.812-.292-2.417"/><path stroke="#000" stroke-linecap="round" stroke-width="4.091" d="M224.146 64.822c.312 0 .93 0 1.849.144 2.626.41 4.076 4.68 5.557 7.772 2.379 4.965 1.796 9.133 2.134 15.683.246 4.771-.519 12.506-.838 16.983-.391 5.472-.723 9.903-.951 15.51-.766 5.216-1.956 10.559-2.415 13.428-.057.459-.092.859-.128 1.27m-2.984 16.754c0 .372-.098 6.513-.294 15.921-.155 7.447-1.069 15.552-1.633 19.511-.296 2.078-.231 5.003-.527 7.844-.174 1.663-1.083 7.028-2.606 14.839-.975 4.005-1.837 6.909-2.714 9.973-.37 1.205-.586 1.7-1.225 3.021"/><path stroke="#000" stroke-linecap="round" stroke-width="4.091" d="M22.618 65.971c-1.188.296-3.021 1.578-4.732 3.019-3.074 2.588-3.351 8.697-3.299 14.448.049 5.35.327 15.634.52 21.474.23 6.929 1.68 10.698 3.668 15.436 1.432 3.411 1.694 5.77 1.864 8.606.317 5.279 1.078 12.481 2.79 19.46 1.32 5.38 1.463 10.334 1.711 14.846.388 7.055 1.117 13.389 1.291 19.92.046 1.727.616 5.685 1.485 12.407 1.4 10.817 2.526 16.584 2.935 19.289a8.5 8.5 0 0 0 1.061 3.015c1.029 1.768 4.43 1.369 8.16 2.643 1.871.639 3.153 1.675 5.184 2.376 3.696 1.276 9.457 2.225 14.724 3.102 3.552.591 6.218.812 11.756 1.421 4 .44 10.33 1.828 15.188 2.514 7.994 1.128 13.94 1.292 18.149 1.855 1.99.266 7.474.293 15.58.525 6.065.174 8.98 1.388 14.674.819 1.308-.131 1.879-.306 6.976-.573a1119 1119 0 0 1 20.102-.828c9.298-.275 14.445-.143 17.407-.779 2.576-.554 7.324-1.087 12.007-1.892 2.958-.509 5.318-1.539 8.663-2.77 2.757-1.016 4.576-1.971 6.213-2.819 1.951-1.011 4.476-3.551 6.456-6.872 1.02-1.71 2.977-3.839 4.485-5.889 2.235-3.039 4.201-11.486 5.014-14.97.307-1.315-3.246 11.757-5.835 18.676-1.212 3.239 4.918-13.462 5.276-16.039.381-2.748.59-7.002.841-10.083.251-3.083 1.323-6.4 1.499-8.729.173-2.281.939-4.508 1.056-9.884.038-1.179.113-1.645.153-2.206s.039-1.204.039-1.866"/><path stroke="#000" stroke-linecap="round" stroke-width="4.091" d="M41.312 196.653c0 1.299.174 3.843.796 6.069.633 2.264 3.331 4.969 5.387 7.089.81.618 1.791 1.082 2.899 1.422.52.127.96.162 1.725.301m7.961-6.979c1.014-.046 2.943-.275 6.88-1.096 3.495-.684 10.03-1.911 16.314-2.543 6.283-.632 12.117-.632 18.128-.632m39.243 3.393c.675 0 4.51 0 15.443.744 7.465.507 18.742 2.229 24.9 3.04 6.835.9 8.51 1.078 11.464 1.818 9.465 2.369 12.612 5.287 14.225 6.903a7.3 7.3 0 0 1 .958 2.677c.057.502.091 1.08.432 2.363m-10.977-13.075c.254-.07 3.212-2.318 8.217-6.287 3.618-2.993 5.759-4.654 7.047-5.537.633-.496 1.221-1.088 2.035-1.91m-19.43 4.624c.966-.929 4.82-4.04 7.826-5.844 1.41-1.03 3.474-3.128 5.633-5.549.844-.92 1.174-1.216 2.248-2.062m-19.115.197c.717-.432 3.668-3.598 6.151-6.188 1.595-1.664 5.092-3.953 7.584-5.779.863-.758 1.585-1.48 2.222-2.113.34-.296.715-.539 1.932-1.422m-17.747-.144c1.003-.477 4.378-3.279 7.691-5.981 4.063-2.821 8.32-6.996 11.851-10.362.632-.523.989-.739 2.183-1.49m-18.672 3.069c.358-.908 2.882-5.067 5.664-8.791 1.211-1.621 3.252-4.653 5.877-7.878.539-.588.96-1.01 1.539-1.616s1.304-1.384 2.668-2.501m-17.521 6.979c2.66-3.422 8.649-10.404 11.717-13.889 2.932-2.838 5.229-4.904 6.345-5.819.562-.483 1.117-1.005 2.087-1.747m-18.363 2.217c.124 0 .959-.568 4.244-3.612 7.05-6.53 11.59-11.818 12.623-12.838a40 40 0 0 1 1.667-1.541c.493-.422.841-.667 1.596-1.224m-16.354 3.76c.373-.23 1.461-1.289 3.149-3.001 1.453-1.344 2.543-2.261 3.389-2.908.437-.319.89-.619 1.866-1.16m-3.501-22.404c.123 0 .664 0 1.567.293 1.262 1.896 1.761 3.49 2.501 5.465.165.484.272.883.382 1.798m4.512-9.592c.853.28 3.442 2.475 4.872 4.53 1.344 3.13 3.024 7.518 3.311 8.597.131.499.234.898.548 2.364M39.386 81.24c-2.653-.881-6.27-1.048-7.627-1.048-.309 2.155.324 17.323.992 25.237.455 5.387.138 10.227 1.081 14.664.642 3.022 1.534 5.767 1.854 11.316.228 3.949.395 10.077 1.023 16.15.629 6.074 1.687 11.915 2.243 15.627s.506 5.272 1.27 8.318c1.891 7.538 3.308 13.641 4 13.176.509-.342 1.062-1.629 2.66-3.494 1.805-2.107 5.344-4.575 6.628-7.64 1.068-2.55.515-4.214.25-7.198-.567-6.397-1.178-10.673-1.966-14.114l-.01-.044c-.312-1.364-1.685-7.354-2.746-15.701-.454-3.572-.812-4.559-1.348-8.202-1.319-8.962-1.814-15.878-2.362-18.256-.69-2.998-2.049-9.976-2.766-18.329-.507-5.894-.806-9.673-3.176-10.461Z"/></svg>